ServerMono-Regular.ufo
<glyph name="quotedbl" format="2">
  <advance width="630"/>
  <unicode hex="0022"/>
  <outline>
    <contour>
      <point x="190" y="710" type="line"/>
      <point x="200" y="500" type="line"/>
      <point x="260" y="500" type="line"/>
      <point x="270" y="710" type="line"/>
    </contour>
    <contour>
      <point x="360" y="710" type="line"/>
      <point x="370" y="500" type="line"/>
      <point x="430" y="500" type="line"/>
      <point x="440" y="710" type="line"/>
    </contour>
  </outline>
</glyph>
<glyph name="numbersign" format="2">
  <advance width="630"/>
  <unicode hex="0023"/>
  <outline>
    <contour>
      <point x="323" y="0" type="line"/>
      <point x="406" y="0" type="line"/>
      <point x="514" y="700" type="line"/>
      <point x="431" y="700" type="line"/>
    </contour>
    <contour>
      <point x="117" y="0" type="line"/>
      <point x="200" y="0" type="line"/>
      <point x="308" y="700" type="line"/>
      <point x="225" y="700" type="line"/>
    </contour>
    <contour>
      <point x="79" y="426" type="line"/>
      <point x="575" y="426" type="line"/>
      <point x="586" y="500" type="line"/>
      <point x="90" y="500" type="line"/>
    </contour>
    <contour>
      <point x="44" y="200" type="line"/>
      <point x="540" y="200" type="line"/>
      <point x="551" y="274" type="line"/>
      <point x="55" y="274" type="line"/>
    </contour>
  </outline>
</glyph>
<glyph name="percent" format="2">
  <advance width="630"/>
  <unicode hex="0025"/>
  <outline>
    <component base="ringcomb" xScale="1.37166" yScale="1.37166" xOffset="-275.843" yOffset="-316.398"/>
    <component base="ringcomb" xScale="1.37166" yScale="1.37166" xOffset="51.7353" yOffset="-754.412"/>
    <contour>
      <point x="494" y="700" type="line"/>
      <point x="53" y="0" type="line"/>
      <point x="147" y="0" type="line"/>
      <point x="588" y="700" type="line"/>
    </contour>
  </outline>
</glyph>
<glyph name="ampersand" format="2">
  <advance width="630"/>
  <unicode hex="0026"/>
  <outline>
    <contour>
      <point x="244" y="-5" type="curve" smooth="yes"/>
      <point x="326" y="-5"/>
      <point x="379" y="25"/>
      <point x="408" y="65" type="curve"/>
      <point x="416" y="65" type="line"/>
      <point x="416" y="20"/>
      <point x="439" y="0"/>
      <point x="478" y="0" type="curve" smooth="yes"/>
      <point x="607" y="0" type="line"/>
      <point x="607" y="80" type="line"/>
      <point x="501" y="80" type="line"/>
      <point x="501" y="492" type="line" smooth="yes"/>
      <point x="501" y="637"/>
      <point x="428" y="710"/>
      <point x="284" y="710" type="curve" smooth="yes"/>
      <point x="151" y="710"/>
      <point x="68" y="635"/>
      <point x="68" y="525" type="curve" smooth="yes"/>
      <point x="68" y="443"/>
      <point x="109" y="397"/>
      <point x="168" y="370" type="curve"/>
      <point x="168" y="362" type="line"/>
      <point x="93" y="337"/>
      <point x="44" y="266"/>
      <point x="44" y="183" type="curve" smooth="yes"/>
      <point x="44" y="68"/>
      <point x="121" y="-5"/>
    </contour>
    <contour>
      <point x="267" y="75" type="curve" smooth="yes"/>
      <point x="185" y="75"/>
      <point x="144" y="125"/>
      <point x="144" y="193" type="curve" smooth="yes"/>
      <point x="144" y="262"/>
      <point x="195" y="325"/>
      <point x="299" y="325" type="curve" smooth="yes"/>
      <point x="607" y="325" type="line"/>
      <point x="607" y="405" type="line"/>
      <point x="304" y="405" type="line" smooth="yes"/>
      <point x="207" y="405"/>
      <point x="164" y="458"/>
      <point x="164" y="517" type="curve" smooth="yes"/>
      <point x="164" y="587"/>
      <point x="214" y="624"/>
      <point x="289" y="624" type="curve" smooth="yes"/>
      <point x="369" y="624"/>
      <point x="407" y="578"/>
      <point x="407" y="482" type="curve" smooth="yes"/>
      <point x="407" y="210" type="line" smooth="yes"/>
      <point x="407" y="110"/>
      <point x="343" y="75"/>
    </contour>
  </outline>
</glyph>
<glyph name="quotesingle" format="2">
  <advance width="630"/>
  <unicode hex="0027"/>
  <outline>
    <contour>
      <point x="275" y="710" type="line"/>
      <point x="285" y="500" type="line"/>
      <point x="345" y="500" type="line"/>
      <point x="355" y="710" type="line"/>
    </contour>
  </outline>
</glyph>
<glyph name="parenleft" format="2">
  <advance width="630"/>
  <unicode hex="0028"/>
  <outline>
    <contour>
      <point x="334" y="-105" type="curve"/>
      <point x="430" y="-105" type="line"/>
      <point x="252" y="174"/>
      <point x="252" y="514"/>
      <point x="430" y="795" type="curve"/>
      <point x="334" y="795" type="line"/>
      <point x="155" y="515"/>
      <point x="155" y="175"/>
    </contour>
  </outline>
</glyph>
<glyph name="asterisk" format="2">
  <advance width="630"/>
  <unicode hex="002A"/>
  <outline>
    <contour>
      <point x="282" y="376" type="line"/>
      <point x="348" y="376" type="line"/>
      <point x="348" y="416" type="line"/>
      <point x="344" y="487" type="line"/>
      <point x="348" y="489" type="line"/>
      <point x="405" y="449" type="line"/>
      <point x="440" y="429" type="line"/>
      <point x="472" y="485" type="line"/>
      <point x="437" y="505" type="line"/>
      <point x="374" y="536" type="line"/>
      <point x="374" y="540" type="line"/>
      <point x="437" y="571" type="line"/>
      <point x="472" y="591" type="line"/>
      <point x="440" y="647" type="line"/>
      <point x="405" y="627" type="line"/>
      <point x="348" y="587" type="line"/>
      <point x="344" y="589" type="line"/>
      <point x="348" y="660" type="line"/>
      <point x="348" y="700" type="line"/>
      <point x="282" y="700" type="line"/>
      <point x="282" y="660" type="line"/>
      <point x="286" y="589" type="line"/>
      <point x="282" y="587" type="line"/>
      <point x="225" y="627" type="line"/>
      <point x="190" y="647" type="line"/>
      <point x="158" y="591" type="line"/>
      <point x="193" y="571" type="line"/>
      <point x="256" y="540" type="line"/>
      <point x="256" y="536" type="line"/>
      <point x="193" y="505" type="line"/>
      <point x="158" y="485" type="line"/>
      <point x="190" y="429" type="line"/>
      <point x="225" y="449" type="line"/>
      <point x="282" y="489" type="line"/>
      <point x="286" y="487" type="line"/>
      <point x="282" y="416" type="line"/>
    </contour>
  </outline>
</glyph>
<glyph name="plus" format="2">
  <advance width="630"/>
  <unicode hex="002B"/>
  <outline>
    <contour>
      <point x="279" y="94" type="line"/>
      <point x="353" y="94" type="line"/>
      <point x="353" y="499" type="line"/>
      <point x="279" y="499" type="line"/>
    </contour>
    <contour>
      <point x="113" y="260" type="line"/>
      <point x="518" y="260" type="line"/>
      <point x="518" y="334" type="line"/>
      <point x="113" y="334" type="line"/>
    </contour>
  </outline>
</glyph>
<glyph name="comma" format="2">
  <advance width="630"/>
  <unicode hex="002C"/>
  <outline>
    <contour>
      <point x="243" y="60" type="curve" smooth="yes"/>
      <point x="243" y="22"/>
      <point x="267" y="-2"/>
      <point x="292" y="-9" type="curve"/>
      <point x="245" y="-134" type="line"/>
      <point x="293" y="-134" type="line"/>
      <point x="364" y="-11" type="line" smooth="yes"/>
      <point x="418" y="82"/>
      <point x="363" y="130"/>
      <point x="319" y="130" type="curve" smooth="yes"/>
      <point x="278" y="130"/>
      <point x="243" y="102"/>
    </contour>
  </outline>
</glyph>
<glyph name="hyphen" format="2">
  <advance width="630"/>
  <unicode hex="002D"/>
  <outline>
    <contour>
      <point x="180" y="230" type="line"/>
      <point x="450" y="230" type="line"/>
      <point x="450" y="304" type="line"/>
      <point x="180" y="304" type="line"/>
    </contour>
  </outline>
</glyph>
<glyph name="period" format="2">
  <advance width="630"/>
  <unicode hex="002E"/>
  <anchor x="315" y="0" name="_dot"/>
  <outline>
    <contour>
      <point x="315" y="-10" type="curve" smooth="yes"/>
      <point x="354" y="-10"/>
      <point x="385" y="20"/>
      <point x="385" y="60" type="curve" smooth="yes"/>
      <point x="385" y="98"/>
      <point x="354" y="130"/>
      <point x="315" y="130" type="curve" smooth="yes"/>
      <point x="276" y="130"/>
      <point x="245" y="98"/>
      <point x="245" y="60" type="curve" smooth="yes"/>
      <point x="245" y="20"/>
      <point x="276" y="-10"/>
    </contour>
  </outline>
</glyph>
<glyph name="slash" format="2">
  <advance width="630"/>
  <unicode hex="002F"/>
  <outline>
    <contour>
      <point x="124" y="-200" type="line"/>
      <point x="216" y="-200" type="line"/>
      <point x="506" y="700" type="line"/>
      <point x="414" y="700" type="line"/>
    </contour>
  </outline>
</glyph>
<glyph name="zero" format="2">
  <advance width="630"/>
  <unicode hex="0030"/>
  <outline>
    <contour>
      <point x="315" y="-10" type="curve" smooth="yes"/>
      <point x="476" y="-10"/>
      <point x="578" y="112"/>
      <point x="578" y="350" type="curve" smooth="yes"/>
      <point x="578" y="588"/>
      <point x="476" y="710"/>
      <point x="315" y="710" type="curve" smooth="yes"/>
      <point x="154" y="710"/>
      <point x="52" y="588"/>
      <point x="52" y="350" type="curve" smooth="yes"/>
      <point x="52" y="112"/>
      <point x="154" y="-10"/>
    </contour>
    <contour>
      <point x="315" y="73" type="curve" smooth="yes"/>
      <point x="199" y="73"/>
      <point x="150" y="177"/>
      <point x="150" y="350" type="curve" smooth="yes"/>
      <point x="150" y="523"/>
      <point x="199" y="627"/>
      <point x="315" y="627" type="curve" smooth="yes"/>
      <point x="431" y="627"/>
      <point x="480" y="523"/>
      <point x="480" y="350" type="curve" smooth="yes"/>
      <point x="480" y="177"/>
      <point x="431" y="73"/>
    </contour>
    <contour>
      <point x="227" y="63" type="line"/>
      <point x="465" y="584" type="line"/>
      <point x="403" y="637" type="line"/>
      <point x="166" y="120" type="line"/>
    </contour>
  </outline>
</glyph>
<glyph name="one" format="2">
  <advance width="630"/>
  <unicode hex="0031"/>
  <outline>
    <contour>
      <point x="100" y="0" type="line"/>
      <point x="530" y="0" type="line"/>
      <point x="530" y="86" type="line"/>
      <point x="363" y="86" type="line"/>
      <point x="363" y="700" type="line"/>
      <point x="277" y="700" type="line"/>
      <point x="100" y="560" type="line"/>
      <point x="100" y="456" type="line"/>
      <point x="259" y="580" type="line"/>
      <point x="267" y="580" type="line"/>
      <point x="267" y="86" type="line"/>
      <point x="100" y="86" type="line"/>
    </contour>
  </outline>
</glyph>
<glyph name="two" format="2">
  <advance width="630"/>
  <unicode hex="0032"/>
  <outline>
    <contour>
      <point x="233" y="89" type="line"/>
      <point x="233" y="97" type="line"/>
      <point x="374" y="226" type="line" smooth="yes"/>
      <point x="484" y="327"/>
      <point x="540" y="400"/>
      <point x="540" y="500" type="curve" smooth="yes"/>
      <point x="540" y="631"/>
      <point x="452" y="710"/>
      <point x="316" y="710" type="curve" smooth="yes"/>
      <point x="172" y="710"/>
      <point x="72" y="609"/>
      <point x="88" y="433" type="curve"/>
      <point x="43" y="469" type="line"/>
      <point x="227" y="469" type="line"/>
      <point x="184" y="432" type="line"/>
      <point x="172" y="549"/>
      <point x="219" y="624"/>
      <point x="316" y="624" type="curve" smooth="yes"/>
      <point x="394" y="624"/>
      <point x="440" y="575"/>
      <point x="440" y="500" type="curve" smooth="yes"/>
      <point x="440" y="417"/>
      <point x="389" y="367"/>
      <point x="292" y="275" type="curve" smooth="yes"/>
      <point x="94" y="89" type="line"/>
      <point x="94" y="0" type="line"/>
      <point x="545" y="0" type="line"/>
      <point x="545" y="89" type="line"/>
    </contour>
  </outline>
</glyph>
<glyph name="three" format="2">
  <advance width="630"/>
  <unicode hex="0033"/>
  <outline>
    <contour>
      <point x="446" y="354" type="curve"/>
      <point x="446" y="362" type="line"/>
      <point x="502" y="388"/>
      <point x="546" y="440"/>
      <point x="546" y="517" type="curve" smooth="yes"/>
      <point x="546" y="632"/>
      <point x="462" y="710"/>
      <point x="326" y="710" type="curve" smooth="yes"/>
      <point x="181" y="710"/>
      <point x="81" y="612"/>
      <point x="95" y="473" type="curve"/>
      <point x="51" y="503" type="line"/>
      <point x="235" y="503" type="line"/>
      <point x="193" y="469" type="line"/>
      <point x="182" y="568"/>
      <point x="238" y="626"/>
      <point x="325" y="626" type="curve" smooth="yes"/>
      <point x="400" y="626"/>
      <point x="448" y="580"/>
      <point x="448" y="514" type="curve" smooth="yes"/>
      <point x="448" y="448"/>
      <point x="407" y="400"/>
      <point x="327" y="400" type="curve" smooth="yes"/>
      <point x="270" y="400" type="line"/>
      <point x="270" y="314" type="line"/>
      <point x="318" y="314" type="line" smooth="yes"/>
      <point x="408" y="314"/>
      <point x="455" y="265"/>
      <point x="455" y="194" type="curve" smooth="yes"/>
      <point x="455" y="127"/>
      <point x="409" y="74"/>
      <point x="316" y="74" type="curve" smooth="yes"/>
      <point x="225" y="74"/>
      <point x="170" y="134"/>
      <point x="172" y="226" type="curve"/>
      <point x="217" y="195" type="line"/>
      <point x="33" y="195" type="line"/>
      <point x="76" y="227" type="line"/>
      <point x="66" y="75"/>
      <point x="171" y="-10"/>
      <point x="314" y="-10" type="curve" smooth="yes"/>
      <point x="455" y="-10"/>
      <point x="554" y="61"/>
      <point x="554" y="200" type="curve" smooth="yes"/>
      <point x="554" y="283"/>
      <point x="502" y="332"/>
    </contour>
  </outline>
</glyph>
<glyph name="four" format="2">
  <advance width="630"/>
  <unicode hex="0034"/>
  <outline>
    <contour>
      <point x="377" y="0" type="line"/>
      <point x="469" y="0" type="line"/>
      <point x="469" y="700" type="line"/>
      <point x="369" y="700" type="line"/>
      <point x="52" y="228" type="line"/>
      <point x="52" y="140" type="line"/>
      <point x="573" y="140" type="line"/>
      <point x="573" y="223" type="line"/>
      <point x="153" y="223" type="line"/>
      <point x="369" y="548" type="line"/>
      <point x="377" y="548" type="line"/>
    </contour>
  </outline>
</glyph>
<glyph name="five" format="2">
  <advance width="630"/>
  <unicode hex="0035"/>
  <outline>
    <contour>
      <point x="310" y="-10" type="curve" smooth="yes"/>
      <point x="452" y="-10"/>
      <point x="556" y="88"/>
      <point x="556" y="234" type="curve" smooth="yes"/>
      <point x="556" y="379"/>
      <point x="460" y="465"/>
      <point x="348" y="465" type="curve" smooth="yes"/>
      <point x="287" y="465"/>
      <point x="228" y="448"/>
      <point x="194" y="412" type="curve"/>
      <point x="186" y="412" type="line"/>
      <point x="209" y="615" type="line"/>
      <point x="510" y="615" type="line"/>
      <point x="510" y="701" type="line"/>
      <point x="131" y="701" type="line"/>
      <point x="84" y="299" type="line"/>
      <point x="171" y="299" type="line"/>
      <point x="200" y="357"/>
      <point x="249" y="384"/>
      <point x="315" y="384" type="curve" smooth="yes"/>
      <point x="401" y="384"/>
      <point x="457" y="315"/>
      <point x="457" y="229" type="curve" smooth="yes"/>
      <point x="457" y="147"/>
      <point x="406" y="73"/>
      <point x="310" y="73" type="curve" smooth="yes"/>
      <point x="217" y="73"/>
      <point x="167" y="133"/>
      <point x="167" y="224" type="curve"/>
      <point x="217" y="195" type="line"/>
      <point x="30" y="195" type="line"/>
      <point x="73" y="224" type="line"/>
      <point x="73" y="75"/>
      <point x="166" y="-10"/>
    </contour>
  </outline>
</glyph>
<glyph name="six" format="2">
  <advance width="630"/>
  <unicode hex="0036"/>
  <outline>
    <contour>
      <point x="183" y="362" type="curve"/>
      <point x="175" y="362" type="line"/>
      <point x="175" y="525"/>
      <point x="223" y="630"/>
      <point x="343" y="630" type="curve" smooth="yes"/>
      <point x="426" y="630"/>
      <point x="465" y="571"/>
      <point x="468" y="496" type="curve"/>
      <point x="420" y="515" type="line"/>
      <point x="607" y="515" type="line"/>
      <point x="564" y="496" type="line"/>
      <point x="561" y="619"/>
      <point x="488" y="710"/>
      <point x="343" y="710" type="curve" smooth="yes"/>
      <point x="164" y="710"/>
      <point x="74" y="562"/>
      <point x="74" y="312" type="curve" smooth="yes"/>
      <point x="74" y="84"/>
      <point x="180" y="-10"/>
      <point x="329" y="-10" type="curve" smooth="yes"/>
      <point x="459" y="-10"/>
      <point x="568" y="66"/>
      <point x="568" y="222" type="curve" smooth="yes"/>
      <point x="568" y="369"/>
      <point x="477" y="443"/>
      <point x="350" y="443" type="curve" smooth="yes"/>
      <point x="276" y="443"/>
      <point x="213" y="411"/>
    </contour>
    <contour>
      <point x="329" y="73" type="curve" smooth="yes"/>
      <point x="243" y="73"/>
      <point x="186" y="132"/>
      <point x="186" y="218" type="curve" smooth="yes"/>
      <point x="186" y="304"/>
      <point x="243" y="363"/>
      <point x="329" y="363" type="curve" smooth="yes"/>
      <point x="415" y="363"/>
      <point x="470" y="304"/>
      <point x="470" y="218" type="curve" smooth="yes"/>
      <point x="470" y="132"/>
      <point x="415" y="73"/>
    </contour>
  </outline>
</glyph>
<glyph name="seven" format="2">
  <advance width="630"/>
  <unicode hex="0037"/>
  <outline>
    <contour>
      <point x="438" y="614" type="line"/>
      <point x="438" y="606" type="line"/>
      <point x="319" y="492"/>
      <point x="233" y="310"/>
      <point x="233" y="36" type="curve" smooth="yes"/>
      <point x="233" y="0" type="line"/>
      <point x="329" y="0" type="line"/>
      <point x="329" y="30" type="line" smooth="yes"/>
      <point x="329" y="311"/>
      <point x="375" y="444"/>
      <point x="550" y="614" type="curve"/>
      <point x="550" y="700" type="line"/>
      <point x="79" y="700" type="line"/>
      <point x="79" y="614" type="line"/>
    </contour>
  </outline>
</glyph>
<glyph name="eight" format="2">
  <advance width="630"/>
  <unicode hex="0038"/>
  <outline>
    <contour>
      <point x="315" y="-10" type="curve" smooth="yes"/>
      <point x="466" y="-10"/>
      <point x="568" y="62"/>
      <point x="568" y="188" type="curve" smooth="yes"/>
      <point x="568" y="263"/>
      <point x="533" y="324"/>
      <point x="444" y="362" type="curve"/>
      <point x="444" y="370" type="line"/>
      <point x="520" y="404"/>
      <point x="548" y="461"/>
      <point x="548" y="525" type="curve" smooth="yes"/>
      <point x="548" y="635"/>
      <point x="456" y="710"/>
      <point x="315" y="710" type="curve" smooth="yes"/>
      <point x="174" y="710"/>
      <point x="82" y="635"/>
      <point x="82" y="525" type="curve" smooth="yes"/>
      <point x="82" y="462"/>
      <point x="109" y="404"/>
      <point x="185" y="370" type="curve"/>
      <point x="185" y="362" type="line"/>
      <point x="96" y="324"/>
      <point x="62" y="262"/>
      <point x="62" y="188" type="curve" smooth="yes"/>
      <point x="62" y="62"/>
      <point x="164" y="-10"/>
    </contour>
    <contour>
      <point x="315" y="73" type="curve" smooth="yes"/>
      <point x="213" y="73"/>
      <point x="160" y="127"/>
      <point x="160" y="200" type="curve" smooth="yes"/>
      <point x="160" y="270"/>
      <point x="213" y="324"/>
      <point x="315" y="324" type="curve" smooth="yes"/>
      <point x="417" y="324"/>
      <point x="470" y="270"/>
      <point x="470" y="200" type="curve" smooth="yes"/>
      <point x="470" y="127"/>
      <point x="417" y="73"/>
    </contour>
    <contour>
      <point x="315" y="407" type="curve" smooth="yes"/>
      <point x="229" y="407"/>
      <point x="180" y="451"/>
      <point x="180" y="517" type="curve" smooth="yes"/>
      <point x="180" y="583"/>
      <point x="229" y="627"/>
      <point x="315" y="627" type="curve" smooth="yes"/>
      <point x="401" y="627"/>
      <point x="450" y="583"/>
      <point x="450" y="517" type="curve" smooth="yes"/>
      <point x="450" y="451"/>
      <point x="401" y="407"/>
    </contour>
  </outline>
</glyph>
<glyph name="nine" format="2">
  <advance width="630"/>
  <unicode hex="0039"/>
  <outline>
    <contour>
      <point x="478" y="344" type="curve"/>
      <point x="486" y="344" type="line"/>
      <point x="486" y="175"/>
      <point x="458" y="70"/>
      <point x="328" y="70" type="curve" smooth="yes"/>
      <point x="235" y="70"/>
      <point x="196" y="129"/>
      <point x="193" y="204" type="curve"/>
      <point x="241" y="185" type="line"/>
      <point x="54" y="185" type="line"/>
      <point x="97" y="204" type="line"/>
      <point x="100" y="81"/>
      <point x="173" y="-10"/>
      <point x="328" y="-10" type="curve" smooth="yes"/>
      <point x="517" y="-10"/>
      <point x="587" y="138"/>
      <point x="587" y="388" type="curve" smooth="yes"/>
      <point x="587" y="616"/>
      <point x="481" y="710"/>
      <point x="332" y="710" type="curve" smooth="yes"/>
      <point x="202" y="710"/>
      <point x="93" y="634"/>
      <point x="93" y="481" type="curve" smooth="yes"/>
      <point x="93" y="343"/>
      <point x="184" y="263"/>
      <point x="311" y="263" type="curve" smooth="yes"/>
      <point x="385" y="263"/>
      <point x="448" y="295"/>
    </contour>
    <contour>
      <point x="332" y="627" type="curve" smooth="yes"/>
      <point x="418" y="627"/>
      <point x="475" y="568"/>
      <point x="475" y="485" type="curve" smooth="yes"/>
      <point x="475" y="402"/>
      <point x="418" y="343"/>
      <point x="332" y="343" type="curve" smooth="yes"/>
      <point x="246" y="343"/>
      <point x="191" y="402"/>
      <point x="191" y="485" type="curve" smooth="yes"/>
      <point x="191" y="568"/>
      <point x="246" y="627"/>
    </contour>
  </outline>
</glyph>
<glyph name="equal" format="2">
  <advance width="630"/>
  <unicode hex="003D"/>
  <outline>
    <contour>
      <point x="113" y="380" type="line"/>
      <point x="518" y="380" type="line"/>
      <point x="518" y="454" type="line"/>
      <point x="113" y="454" type="line"/>
    </contour>
    <contour>
      <point x="113" y="180" type="line"/>
      <point x="518" y="180" type="line"/>
      <point x="518" y="254" type="line"/>
      <point x="113" y="254" type="line"/>
    </contour>
  </outline>
</glyph>
<glyph name="at" format="2">
  <advance width="630"/>
  <unicode hex="0040"/>
  <outline>
    <contour>
      <point x="331" y="-168" type="curve" smooth="yes"/>
      <point x="402" y="-168"/>
      <point x="460" y="-148"/>
      <point x="507" y="-109" type="curve"/>
      <point x="463" y="-48" type="line"/>
      <point x="436" y="-72"/>
      <point x="392" y="-93"/>
      <point x="336" y="-93" type="curve" smooth="yes"/>
      <point x="183" y="-93"/>
      <point x="111" y="43"/>
      <point x="111" y="271" type="curve" smooth="yes"/>
      <point x="111" y="511"/>
      <point x="181" y="635"/>
      <point x="322" y="635" type="curve" smooth="yes"/>
      <point x="463" y="635"/>
      <point x="521" y="497"/>
      <point x="521" y="288" type="curve" smooth="yes"/>
      <point x="521" y="177"/>
      <point x="515" y="111"/>
      <point x="484" y="111" type="curve" smooth="yes"/>
      <point x="459" y="111"/>
      <point x="455" y="135"/>
      <point x="455" y="176" type="curve" smooth="yes"/>
      <point x="455" y="489" type="line"/>
      <point x="386" y="489" type="line"/>
      <point x="386" y="456" type="line"/>
      <point x="378" y="456" type="line"/>
      <point x="367" y="480"/>
      <point x="339" y="497"/>
      <point x="300" y="497" type="curve" smooth="yes"/>
      <point x="225" y="497"/>
      <point x="170" y="433"/>
      <point x="170" y="260" type="curve" smooth="yes"/>
      <point x="170" y="87"/>
      <point x="225" y="29"/>
      <point x="300" y="29" type="curve" smooth="yes"/>
      <point x="344" y="29"/>
      <point x="377" y="56"/>
      <point x="389" y="92" type="curve"/>
      <point x="398" y="92" type="line"/>
      <point x="407" y="57"/>
      <point x="431" y="31"/>
      <point x="481" y="31" type="curve" smooth="yes"/>
      <point x="569" y="31"/>
      <point x="606" y="112"/>
      <point x="606" y="291" type="curve" smooth="yes"/>
      <point x="606" y="544"/>
      <point x="510" y="710"/>
      <point x="322" y="710" type="curve" smooth="yes"/>
      <point x="134" y="710"/>
      <point x="26" y="558"/>
      <point x="26" y="271" type="curve" smooth="yes"/>
      <point x="26" y="-4"/>
      <point x="135" y="-168"/>
    </contour>
    <contour>
      <point x="315" y="99" type="curve" smooth="yes"/>
      <point x="269" y="99"/>
      <point x="249" y="139"/>
      <point x="249" y="260" type="curve" smooth="yes"/>
      <point x="249" y="387"/>
      <point x="269" y="427"/>
      <point x="315" y="427" type="curve" smooth="yes"/>
      <point x="355" y="427"/>
      <point x="380" y="387"/>
      <point x="380" y="260" type="curve" smooth="yes"/>
      <point x="380" y="139"/>
      <point x="355" y="99"/>
    </contour>
  </outline>
</glyph>
<glyph name="A" format="2">
  <advance width="630"/>
  <unicode hex="0041"/>
  <anchor x="315" y="0" name="bottom"/>
  <anchor x="585" y="0" name="ogonek"/>
  <anchor x="315" y="700" name="top"/>
  <outline>
    <contour>
      <point x="319" y="595" type="line"/>
      <point x="486" y="0" type="line"/>
      <point x="585" y="0" type="line"/>
      <point x="380" y="700" type="line"/>
      <point x="250" y="700" type="line"/>
      <point x="45" y="0" type="line"/>
      <point x="144" y="0" type="line"/>
      <point x="311" y="595" type="line"/>
    </contour>
    <contour>
      <point x="184" y="291" type="line"/>
      <point x="164" y="205" type="line"/>
      <point x="465" y="205" type="line"/>
      <point x="445" y="291" type="line"/>
    </contour>
  </outline>
</glyph>
<glyph name="B" format="2">
  <advance width="630"/>
  <unicode hex="0042"/>
  <anchor x="315" y="0" name="bottom"/>
  <anchor x="158" y="175" name="center"/>
  <anchor x="315" y="700" name="top"/>
  <outline>
    <contour>
      <point x="110" y="0" type="line"/>
      <point x="352" y="0" type="line" smooth="yes"/>
      <point x="497" y="0"/>
      <point x="576" y="75"/>
      <point x="576" y="194" type="curve" smooth="yes"/>
      <point x="576" y="285"/>
      <point x="537" y="338"/>
      <point x="467" y="363" type="curve"/>
      <point x="467" y="371" type="line"/>
      <point x="513" y="394"/>
      <point x="555" y="437"/>
      <point x="555" y="519" type="curve" smooth="yes"/>
      <point x="555" y="629"/>
      <point x="489" y="700"/>
      <point x="340" y="700" type="curve" smooth="yes"/>
      <point x="110" y="700" type="line"/>
    </contour>
    <contour>
      <point x="206" y="86" type="line"/>
      <point x="206" y="320" type="line"/>
      <point x="341" y="320" type="line" smooth="yes"/>
      <point x="435" y="320"/>
      <point x="480" y="277"/>
      <point x="480" y="203" type="curve" smooth="yes"/>
      <point x="480" y="129"/>
      <point x="435" y="86"/>
      <point x="341" y="86" type="curve" smooth="yes"/>
    </contour>
    <contour>
      <point x="206" y="406" type="line"/>
      <point x="206" y="614" type="line"/>
      <point x="336" y="614" type="line" smooth="yes"/>
      <point x="423" y="614"/>
      <point x="459" y="578"/>
      <point x="459" y="510" type="curve" smooth="yes"/>
      <point x="459" y="442"/>
      <point x="423" y="406"/>
      <point x="336" y="406" type="curve" smooth="yes"/>
    </contour>
  </outline>
</glyph>
<glyph name="C" format="2">
  <advance width="630"/>
  <unicode hex="0043"/>
  <anchor x="315" y="0" name="bottom"/>
  <anchor x="315" y="700" name="top"/>
  <outline>
    <contour>
      <point x="615" y="260" type="line"/>
      <point x="429" y="260" type="line"/>
      <point x="475" y="283" type="line"/>
      <point x="475" y="164"/>
      <point x="420" y="76"/>
      <point x="324" y="76" type="curve" smooth="yes"/>
      <point x="231" y="76"/>
      <point x="158" y="150"/>
      <point x="158" y="350" type="curve" smooth="yes"/>
      <point x="158" y="550"/>
      <point x="227" y="624"/>
      <point x="323" y="624" type="curve" smooth="yes"/>
      <point x="423" y="624"/>
      <point x="472" y="532"/>
      <point x="472" y="408" type="curve"/>
      <point x="426" y="435" type="line"/>
      <point x="612" y="435" type="line"/>
      <point x="568" y="409" type="line"/>
      <point x="568" y="603"/>
      <point x="477" y="710"/>
      <point x="323" y="710" type="curve" smooth="yes"/>
      <point x="161" y="710"/>
      <point x="60" y="588"/>
      <point x="60" y="350" type="curve" smooth="yes"/>
      <point x="60" y="112"/>
      <point x="163" y="-10"/>
      <point x="324" y="-10" type="curve" smooth="yes"/>
      <point x="468" y="-10"/>
      <point x="571" y="98"/>
      <point x="571" y="292" type="curve"/>
    </contour>
  </outline>
</glyph>
<glyph name="D" format="2">
  <advance width="630"/>
  <unicode hex="0044"/>
  <anchor x="315" y="0" name="bottom"/>
  <anchor x="159" y="350" name="center"/>
  <anchor x="315" y="700" name="top"/>
  <outline>
    <contour>
      <point x="82" y="0" type="line"/>
      <point x="259" y="0" type="line" smooth="yes"/>
      <point x="476" y="0"/>
      <point x="560" y="105"/>
      <point x="560" y="349" type="curve" smooth="yes"/>
      <point x="560" y="592"/>
      <point x="476" y="700"/>
      <point x="257" y="700" type="curve" smooth="yes"/>
      <point x="82" y="700" type="line"/>
    </contour>
    <contour>
      <point x="178" y="86" type="line"/>
      <point x="178" y="614" type="line"/>
      <point x="256" y="614" type="line" smooth="yes"/>
      <point x="413" y="614"/>
      <point x="464" y="550"/>
      <point x="464" y="350" type="curve" smooth="yes"/>
      <point x="464" y="150"/>
      <point x="413" y="86"/>
      <point x="256" y="86" type="curve" smooth="yes"/>
    </contour>
  </outline>
</glyph>
<glyph name="E" format="2">
  <advance width="630"/>
  <unicode hex="0045"/>
  <anchor x="315" y="0" name="bottom"/>
  <anchor x="543" y="0" name="ogonek"/>
  <anchor x="315" y="700" name="top"/>
  <anchor x="20" y="700" name="topleft"/>
  <outline>
    <contour>
      <point x="104" y="0" type="line"/>
      <point x="543" y="0" type="line"/>
      <point x="543" y="86" type="line"/>
      <point x="200" y="86" type="line"/>
      <point x="200" y="317" type="line"/>
      <point x="429" y="317" type="line"/>
      <point x="429" y="403" type="line"/>
      <point x="200" y="403" type="line"/>
      <point x="200" y="614" type="line"/>
      <point x="533" y="614" type="line"/>
      <point x="533" y="700" type="line"/>
      <point x="104" y="700" type="line"/>
    </contour>
  </outline>
</glyph>
<glyph name="F" format="2">
  <advance width="630"/>
  <unicode hex="0046"/>
  <anchor x="315" y="0" name="bottom"/>
  <anchor x="315" y="700" name="top"/>
  <outline>
    <contour>
      <point x="124" y="0" type="line"/>
      <point x="220" y="0" type="line"/>
      <point x="220" y="317" type="line"/>
      <point x="449" y="317" type="line"/>
      <point x="449" y="403" type="line"/>
      <point x="220" y="403" type="line"/>
      <point x="220" y="614" type="line"/>
      <point x="553" y="614" type="line"/>
      <point x="553" y="700" type="line"/>
      <point x="124" y="700" type="line"/>
    </contour>
  </outline>
</glyph>
<glyph name="G" format="2">
  <advance width="630"/>
  <unicode hex="0047"/>
  <anchor x="315" y="0" name="bottom"/>
  <anchor x="315" y="700" name="top"/>
  <outline>
    <contour>
      <point x="319" y="-10" type="curve" smooth="yes"/>
      <point x="475" y="-10"/>
      <point x="575" y="101"/>
      <point x="575" y="350" type="curve" smooth="yes"/>
      <point x="575" y="374" type="line"/>
      <point x="290" y="374" type="line"/>
      <point x="290" y="288" type="line"/>
      <point x="533" y="288" type="line"/>
      <point x="480" y="363" type="line"/>
      <point x="480" y="350" type="line" smooth="yes"/>
      <point x="480" y="172"/>
      <point x="437" y="76"/>
      <point x="319" y="76" type="curve" smooth="yes"/>
      <point x="196" y="76"/>
      <point x="152" y="183"/>
      <point x="152" y="350" type="curve" smooth="yes"/>
      <point x="152" y="517"/>
      <point x="194" y="624"/>
      <point x="321" y="624" type="curve" smooth="yes"/>
      <point x="412" y="624"/>
      <point x="455" y="548"/>
      <point x="463" y="456" type="curve"/>
      <point x="414" y="483" type="line"/>
      <point x="604" y="483" type="line"/>
      <point x="560" y="460" type="line"/>
      <point x="555" y="612"/>
      <point x="467" y="710"/>
      <point x="321" y="710" type="curve" smooth="yes"/>
      <point x="159" y="710"/>
      <point x="54" y="592"/>
      <point x="54" y="350" type="curve" smooth="yes"/>
      <point x="54" y="108"/>
      <point x="159" y="-10"/>
    </contour>
  </outline>
</glyph>
<glyph name="H" format="2">
  <advance width="630"/>
  <unicode hex="0048"/>
  <anchor x="315" y="0" name="bottom"/>
  <anchor x="315" y="525" name="center"/>
  <anchor x="315" y="700" name="top"/>
  <anchor x="20" y="700" name="topleft"/>
  <outline>
    <contour>
      <point x="82" y="0" type="line"/>
      <point x="178" y="0" type="line"/>
      <point x="178" y="316" type="line"/>
      <point x="452" y="316" type="line"/>
      <point x="452" y="0" type="line"/>
      <point x="548" y="0" type="line"/>
      <point x="548" y="700" type="line"/>
      <point x="452" y="700" type="line"/>
      <point x="452" y="402" type="line"/>
      <point x="178" y="402" type="line"/>
      <point x="178" y="700" type="line"/>
      <point x="82" y="700" type="line"/>
    </contour>
  </outline>
</glyph>
<glyph name="I" format="2">
  <advance width="630"/>
  <unicode hex="0049"/>
  <anchor x="315" y="0" name="bottom"/>
  <anchor x="524" y="0" name="ogonek"/>
  <anchor x="315" y="700" name="top"/>
  <anchor x="20" y="700" name="topleft"/>
  <outline>
    <contour>
      <point x="106" y="0" type="line"/>
      <point x="524" y="0" type="line"/>
      <point x="524" y="86" type="line"/>
      <point x="363" y="86" type="line"/>
      <point x="363" y="614" type="line"/>
      <point x="524" y="614" type="line"/>
      <point x="524" y="700" type="line"/>
      <point x="106" y="700" type="line"/>
      <point x="106" y="614" type="line"/>
      <point x="267" y="614" type="line"/>
      <point x="267" y="86" type="line"/>
      <point x="106" y="86" type="line"/>
    </contour>
  </outline>
</glyph>
<glyph name="J" format="2">
  <advance width="630"/>
  <unicode hex="004A"/>
  <anchor x="315" y="0" name="bottom"/>
  <anchor x="326" y="700" name="top"/>
  <outline>
    <contour>
      <point x="515" y="700" type="line"/>
      <point x="142" y="700" type="line"/>
      <point x="142" y="614" type="line"/>
      <point x="419" y="614" type="line"/>
      <point x="419" y="228" type="line" smooth="yes"/>
      <point x="419" y="126"/>
      <point x="383" y="77"/>
      <point x="307" y="77" type="curve" smooth="yes"/>
      <point x="231" y="77"/>
      <point x="191" y="126"/>
      <point x="191" y="228" type="curve"/>
      <point x="237" y="219" type="line"/>
      <point x="50" y="219" type="line"/>
      <point x="94" y="226" type="line"/>
      <point x="94" y="72"/>
      <point x="171" y="-10"/>
      <point x="307" y="-10" type="curve" smooth="yes"/>
      <point x="432" y="-10"/>
      <point x="515" y="72"/>
      <point x="515" y="223" type="curve" smooth="yes"/>
    </contour>
  </outline>
</glyph>
<glyph name="K" format="2">
  <advance width="630"/>
  <unicode hex="004B"/>
  <anchor x="315" y="0" name="bottom"/>
  <anchor x="315" y="700" name="top"/>
  <outline>
    <contour>
      <point x="139" y="177" type="line"/>
      <point x="176" y="177" type="line"/>
      <point x="543" y="700" type="line"/>
      <point x="439" y="700" type="line"/>
      <point x="204" y="358" type="line"/>
      <point x="196" y="358" type="line"/>
      <point x="139" y="358" type="line"/>
    </contour>
    <contour>
      <point x="100" y="0" type="line"/>
      <point x="196" y="0" type="line"/>
      <point x="196" y="700" type="line"/>
      <point x="100" y="700" type="line"/>
    </contour>
    <contour>
      <point x="459" y="0" type="line"/>
      <point x="564" y="0" type="line"/>
      <point x="341" y="436" type="line"/>
      <point x="269" y="369" type="line"/>
      <point x="269" y="330" type="line"/>
      <point x="291" y="330" type="line"/>
    </contour>
  </outline>
</glyph>
<glyph name="L" format="2">
  <advance width="630"/>
  <unicode hex="004C"/>
  <anchor x="325" y="0" name="bottom"/>
  <anchor x="150" y="350" name="center"/>
  <anchor x="142" y="700" name="top"/>
  <anchor x="405" y="700" name="topright"/>
  <outline>
    <contour>
      <point x="94" y="0" type="line"/>
      <point x="559" y="0" type="line"/>
      <point x="559" y="86" type="line"/>
      <point x="190" y="86" type="line"/>
      <point x="190" y="700" type="line"/>
      <point x="94" y="700" type="line"/>
    </contour>
  </outline>
</glyph>
<glyph name="M" format="2">
  <advance width="630"/>
  <unicode hex="004D"/>
  <anchor x="315" y="0" name="bottom"/>
  <anchor x="315" y="700" name="top"/>
  <outline>
    <contour>
      <point x="158" y="0" type="line"/>
      <point x="158" y="591" type="line"/>
      <point x="165" y="591" type="line"/>
      <point x="265" y="246" type="line"/>
      <point x="365" y="246" type="line"/>
      <point x="465" y="591" type="line"/>
      <point x="472" y="591" type="line"/>
      <point x="472" y="0" type="line"/>
      <point x="562" y="0" type="line"/>
      <point x="562" y="700" type="line"/>
      <point x="419" y="700" type="line"/>
      <point x="319" y="336" type="line"/>
      <point x="311" y="336" type="line"/>
      <point x="211" y="700" type="line"/>
      <point x="68" y="700" type="line"/>
      <point x="68" y="0" type="line"/>
    </contour>
  </outline>
</glyph>
<glyph name="N" format="2">
  <advance width="630"/>
  <unicode hex="004E"/>
  <anchor x="315" y="0" name="bottom"/>
  <anchor x="315" y="700" name="top"/>
  <outline>
    <contour>
      <point x="178" y="0" type="line"/>
      <point x="178" y="547" type="line"/>
      <point x="186" y="547" type="line"/>
      <point x="415" y="0" type="line"/>
      <point x="548" y="0" type="line"/>
      <point x="548" y="700" type="line"/>
      <point x="452" y="700" type="line"/>
      <point x="452" y="152" type="line"/>
      <point x="444" y="152" type="line"/>
      <point x="215" y="700" type="line"/>
      <point x="82" y="700" type="line"/>
      <point x="82" y="0" type="line"/>
    </contour>
  </outline>
</glyph>
<glyph name="O" format="2">
  <advance width="630"/>
  <unicode hex="004F"/>
  <anchor x="315" y="0" name="bottom"/>
  <anchor x="315" y="350" name="center"/>
  <anchor x="567" y="10" name="ogonek"/>
  <anchor x="315" y="700" name="top"/>
  <anchor x="20" y="700" name="topleft"/>
  <anchor x="610" y="700" name="topright"/>
  <outline>
    <contour>
      <point x="315" y="-10" type="curve" smooth="yes"/>
      <point x="476" y="-10"/>
      <point x="578" y="112"/>
      <point x="578" y="350" type="curve" smooth="yes"/>
      <point x="578" y="588"/>
      <point x="476" y="710"/>
      <point x="315" y="710" type="curve" smooth="yes"/>
      <point x="154" y="710"/>
      <point x="52" y="588"/>
      <point x="52" y="350" type="curve" smooth="yes"/>
      <point x="52" y="112"/>
      <point x="154" y="-10"/>
    </contour>
    <contour>
      <point x="315" y="76" type="curve" smooth="yes"/>
      <point x="199" y="76"/>
      <point x="150" y="180"/>
      <point x="150" y="350" type="curve" smooth="yes"/>
      <point x="150" y="520"/>
      <point x="199" y="624"/>
      <point x="315" y="624" type="curve" smooth="yes"/>
      <point x="431" y="624"/>
      <point x="480" y="520"/>
      <point x="480" y="350" type="curve" smooth="yes"/>
      <point x="480" y="180"/>
      <point x="431" y="76"/>
    </contour>
  </outline>
</glyph>
<glyph name="P" format="2">
  <advance width="630"/>
  <unicode hex="0050"/>
  <anchor x="315" y="0" name="bottom"/>
  <anchor x="315" y="700" name="top"/>
  <outline>
    <contour>
      <point x="119" y="0" type="line"/>
      <point x="215" y="0" type="line"/>
      <point x="215" y="278" type="line"/>
      <point x="348" y="278" type="line" smooth="yes"/>
      <point x="492" y="278"/>
      <point x="578" y="353"/>
      <point x="578" y="489" type="curve" smooth="yes"/>
      <point x="578" y="625"/>
      <point x="496" y="700"/>
      <point x="350" y="700" type="curve" smooth="yes"/>
      <point x="119" y="700" type="line"/>
    </contour>
    <contour>
      <point x="215" y="364" type="line"/>
      <point x="215" y="614" type="line"/>
      <point x="341" y="614" type="line" smooth="yes"/>
      <point x="442" y="614"/>
      <point x="482" y="557"/>
      <point x="482" y="489" type="curve" smooth="yes"/>
      <point x="482" y="405"/>
      <point x="440" y="364"/>
      <point x="340" y="364" type="curve" smooth="yes"/>
    </contour>
  </outline>
</glyph>
<glyph name="R" format="2">
  <advance width="630"/>
  <unicode hex="0052"/>
  <anchor x="315" y="0" name="bottom"/>
  <anchor x="315" y="700" name="top"/>
  <outline>
    <contour>
      <point x="98" y="0" type="line"/>
      <point x="194" y="0" type="line"/>
      <point x="194" y="299" type="line"/>
      <point x="301" y="300" type="line" smooth="yes"/>
      <point x="390" y="301"/>
      <point x="418" y="274"/>
      <point x="435" y="181" type="curve" smooth="yes"/>
      <point x="455" y="74" type="line" smooth="yes"/>
      <point x="460" y="46"/>
      <point x="468" y="18"/>
      <point x="479" y="0" type="curve"/>
      <point x="577" y="0" type="line"/>
      <point x="565" y="19"/>
      <point x="557" y="46"/>
      <point x="551" y="76" type="curve" smooth="yes"/>
      <point x="525" y="202" type="line" smooth="yes"/>
      <point x="510" y="276"/>
      <point x="488" y="319"/>
      <point x="430" y="334" type="curve"/>
      <point x="430" y="342" type="line"/>
      <point x="517" y="364"/>
      <point x="555" y="432"/>
      <point x="555" y="510" type="curve" smooth="yes"/>
      <point x="555" y="631"/>
      <point x="473" y="700"/>
      <point x="327" y="700" type="curve" smooth="yes"/>
      <point x="98" y="700" type="line"/>
    </contour>
    <contour>
      <point x="194" y="380" type="line"/>
      <point x="194" y="614" type="line"/>
      <point x="316" y="614" type="line" smooth="yes"/>
      <point x="419" y="614"/>
      <point x="459" y="573"/>
      <point x="459" y="494" type="curve" smooth="yes"/>
      <point x="459" y="425"/>
      <point x="417" y="380"/>
      <point x="315" y="380" type="curve" smooth="yes"/>
    </contour>
  </outline>
</glyph>
<glyph name="S" format="2">
  <advance width="630"/>
  <unicode hex="0053"/>
  <anchor x="344" y="0" name="bottom"/>
  <anchor x="324" y="700" name="top"/>
  <outline>
    <contour>
      <point x="335" y="-10" type="curve" smooth="yes"/>
      <point x="478" y="-10"/>
      <point x="566" y="64"/>
      <point x="566" y="194" type="curve" smooth="yes"/>
      <point x="566" y="297"/>
      <point x="504" y="355"/>
      <point x="404" y="386" type="curve" smooth="yes"/>
      <point x="310" y="415" type="line" smooth="yes"/>
      <point x="235" y="438"/>
      <point x="204" y="473"/>
      <point x="204" y="526" type="curve" smooth="yes"/>
      <point x="204" y="588"/>
      <point x="253" y="629"/>
      <point x="328" y="629" type="curve" smooth="yes"/>
      <point x="414" y="629"/>
      <point x="463" y="581"/>
      <point x="463" y="479" type="curve"/>
      <point x="421" y="496" type="line"/>
      <point x="604" y="496" type="line"/>
      <point x="561" y="483" type="line"/>
      <point x="561" y="617"/>
      <point x="492" y="710"/>
      <point x="328" y="710" type="curve" smooth="yes"/>
      <point x="190" y="710"/>
      <point x="106" y="629"/>
      <point x="106" y="520" type="curve" smooth="yes"/>
      <point x="106" y="412"/>
      <point x="172" y="356"/>
      <point x="277" y="325" type="curve" smooth="yes"/>
      <point x="351" y="303" type="line" smooth="yes"/>
      <point x="443" y="276"/>
      <point x="468" y="237"/>
      <point x="468" y="181" type="curve" smooth="yes"/>
      <point x="468" y="109"/>
      <point x="416" y="71"/>
      <point x="335" y="71" type="curve" smooth="yes"/>
      <point x="231" y="71"/>
      <point x="185" y="133"/>
      <point x="185" y="232" type="curve"/>
      <point x="221" y="211" type="line"/>
      <point x="43" y="211" type="line"/>
      <point x="87" y="225" type="line"/>
      <point x="87" y="82"/>
      <point x="171" y="-10"/>
    </contour>
  </outline>
</glyph>
<glyph name="T" format="2">
  <advance width="630"/>
  <unicode hex="0054"/>
  <anchor x="315" y="0" name="bottom"/>
  <anchor x="315" y="350" name="center"/>
  <anchor x="315" y="700" name="top"/>
  <outline>
    <contour>
      <point x="267" y="0" type="line"/>
      <point x="363" y="0" type="line"/>
      <point x="363" y="614" type="line"/>
      <point x="584" y="614" type="line"/>
      <point x="584" y="700" type="line"/>
      <point x="46" y="700" type="line"/>
      <point x="46" y="614" type="line"/>
      <point x="267" y="614" type="line"/>
    </contour>
  </outline>
</glyph>
<glyph name="U" format="2">
  <advance width="630"/>
  <unicode hex="0055"/>
  <anchor x="315" y="0" name="bottom"/>
  <anchor x="400" y="0" name="ogonek"/>
  <anchor x="315" y="700" name="top"/>
  <anchor x="610" y="700" name="topright"/>
  <outline>
    <contour>
      <point x="315" y="-10" type="curve" smooth="yes"/>
      <point x="478" y="-10"/>
      <point x="548" y="77"/>
      <point x="548" y="228" type="curve" smooth="yes"/>
      <point x="548" y="700" type="line"/>
      <point x="452" y="700" type="line"/>
      <point x="452" y="236" type="line" smooth="yes"/>
      <point x="452" y="133"/>
      <point x="409" y="76"/>
      <point x="315" y="76" type="curve" smooth="yes"/>
      <point x="221" y="76"/>
      <point x="178" y="133"/>
      <point x="178" y="236" type="curve" smooth="yes"/>
      <point x="178" y="700" type="line"/>
      <point x="82" y="700" type="line"/>
      <point x="82" y="228" type="line" smooth="yes"/>
      <point x="82" y="77"/>
      <point x="152" y="-10"/>
    </contour>
  </outline>
</glyph>
<glyph name="V" format="2">
  <advance width="630"/>
  <unicode hex="0056"/>
  <anchor x="315" y="0" name="bottom"/>
  <anchor x="315" y="700" name="top"/>
  <outline>
    <contour>
      <point x="319" y="105" type="line"/>
      <point x="311" y="105" type="line"/>
      <point x="148" y="700" type="line"/>
      <point x="49" y="700" type="line"/>
      <point x="250" y="0" type="line"/>
      <point x="380" y="0" type="line"/>
      <point x="581" y="700" type="line"/>
      <point x="482" y="700" type="line"/>
    </contour>
  </outline>
</glyph>
<glyph name="W" format="2">
  <advance width="630"/>
  <unicode hex="0057"/>
  <anchor x="315" y="0" name="bottom"/>
  <anchor x="315" y="700" name="top"/>
  <outline>
    <contour>
      <point x="96" y="0" type="line"/>
      <point x="234" y="0" type="line"/>
      <point x="311" y="303" type="line"/>
      <point x="319" y="303" type="line"/>
      <point x="396" y="0" type="line"/>
      <point x="534" y="0" type="line"/>
      <point x="566" y="700" type="line"/>
      <point x="470" y="700" type="line"/>
      <point x="445" y="127" type="line"/>
      <point x="438" y="127" type="line"/>
      <point x="352" y="468" type="line"/>
      <point x="278" y="468" type="line"/>
      <point x="192" y="127" type="line"/>
      <point x="185" y="127" type="line"/>
      <point x="160" y="700" type="line"/>
      <point x="64" y="700" type="line"/>
    </contour>
  </outline>
</glyph>
<glyph name="X" format="2">
  <advance width="630"/>
  <unicode hex="0058"/>
  <anchor x="315" y="0" name="bottom"/>
  <anchor x="315" y="700" name="top"/>
  <outline>
    <contour>
      <point x="64" y="0" type="line"/>
      <point x="172" y="0" type="line"/>
      <point x="311" y="287" type="line"/>
      <point x="319" y="287" type="line"/>
      <point x="458" y="0" type="line"/>
      <point x="566" y="0" type="line"/>
      <point x="389" y="353" type="line"/>
      <point x="558" y="700" type="line"/>
      <point x="456" y="700" type="line"/>
      <point x="319" y="416" type="line"/>
      <point x="311" y="416" type="line"/>
      <point x="174" y="700" type="line"/>
      <point x="72" y="700" type="line"/>
      <point x="241" y="353" type="line"/>
    </contour>
  </outline>
</glyph>
<glyph name="Y" format="2">
  <advance width="630"/>
  <unicode hex="0059"/>
  <anchor x="315" y="0" name="bottom"/>
  <anchor x="315" y="700" name="top"/>
  <anchor x="20" y="700" name="topleft"/>
  <outline>
    <contour>
      <point x="65" y="700" type="line"/>
      <point x="267" y="268" type="line"/>
      <point x="267" y="0" type="line"/>
      <point x="363" y="0" type="line"/>
      <point x="363" y="268" type="line"/>
      <point x="565" y="700" type="line"/>
      <point x="465" y="700" type="line"/>
      <point x="319" y="381" type="line"/>
      <point x="311" y="381" type="line"/>
      <point x="165" y="700" type="line"/>
    </contour>
  </outline>
</glyph>
<glyph name="Z" format="2">
  <advance width="630"/>
  <unicode hex="005A"/>
  <anchor x="315" y="0" name="bottom"/>
  <anchor x="315" y="350" name="center"/>
  <anchor x="315" y="700" name="top"/>
  <outline>
    <contour>
      <point x="90" y="0" type="line"/>
      <point x="539" y="0" type="line"/>
      <point x="539" y="85" type="line"/>
      <point x="195" y="85" type="line"/>
      <point x="531" y="614" type="line"/>
      <point x="531" y="700" type="line"/>
      <point x="100" y="700" type="line"/>
      <point x="100" y="614" type="line"/>
      <point x="426" y="614" type="line"/>
      <point x="90" y="85" type="line"/>
    </contour>
  </outline>
</glyph>
<glyph name="bracketleft" format="2">
  <advance width="630"/>
  <unicode hex="005B"/>
  <outline>
    <contour>
      <point x="173" y="9" type="line" smooth="yes"/>
      <point x="173" y="-69"/>
      <point x="209" y="-105"/>
      <point x="287" y="-105" type="curve" smooth="yes"/>
      <point x="458" y="-105" type="line"/>
      <point x="458" y="-25" type="line"/>
      <point x="264" y="-25" type="line"/>
      <point x="264" y="715" type="line"/>
      <point x="458" y="715" type="line"/>
      <point x="458" y="795" type="line"/>
      <point x="287" y="795" type="line" smooth="yes"/>
      <point x="209" y="795"/>
      <point x="173" y="759"/>
      <point x="173" y="681" type="curve" smooth="yes"/>
    </contour>
  </outline>
</glyph>
<glyph name="underscore" format="2">
  <advance width="630"/>
  <unicode hex="005F"/>
  <outline>
    <contour>
      <point x="10" y="-132" type="line"/>
      <point x="620" y="-132" type="line"/>
      <point x="620" y="-58" type="line"/>
      <point x="10" y="-58" type="line"/>
    </contour>
  </outline>
</glyph>
<glyph name="a" format="2">
  <advance width="630"/>
  <unicode hex="0061"/>
  <anchor x="315" y="0" name="bottom"/>
  <anchor x="587" y="0" name="ogonek"/>
  <anchor x="315" y="500" name="top"/>
  <outline>
    <contour>
      <point x="488" y="0" type="curve" smooth="yes"/>
      <point x="587" y="0" type="line"/>
      <point x="587" y="79" type="line"/>
      <point x="504" y="79" type="line"/>
      <point x="504" y="330" type="line" smooth="yes"/>
      <point x="504" y="456"/>
      <point x="423" y="510"/>
      <point x="315" y="510" type="curve" smooth="yes"/>
      <point x="184" y="510"/>
      <point x="109" y="438"/>
      <point x="109" y="332" type="curve"/>
      <point x="93" y="346" type="line"/>
      <point x="218" y="346" type="line"/>
      <point x="207" y="329" type="line"/>
      <point x="207" y="391"/>
      <point x="236" y="434"/>
      <point x="312" y="434" type="curve" smooth="yes"/>
      <point x="374" y="434"/>
      <point x="410" y="399"/>
      <point x="410" y="327" type="curve" smooth="yes"/>
      <point x="410" y="162" type="line" smooth="yes"/>
      <point x="410" y="92"/>
      <point x="355" y="61"/>
      <point x="295" y="61" type="curve" smooth="yes"/>
      <point x="234" y="61"/>
      <point x="200" y="88"/>
      <point x="200" y="137" type="curve" smooth="yes"/>
      <point x="200" y="195"/>
      <point x="247" y="224"/>
      <point x="376" y="224" type="curve" smooth="yes"/>
      <point x="419" y="224" type="line"/>
      <point x="419" y="292" type="line"/>
      <point x="363" y="292" type="line" smooth="yes"/>
      <point x="190" y="292"/>
      <point x="103" y="242"/>
      <point x="103" y="133" type="curve" smooth="yes"/>
      <point x="103" y="38"/>
      <point x="173" y="-6"/>
      <point x="271" y="-6" type="curve" smooth="yes"/>
      <point x="337" y="-6"/>
      <point x="398" y="17"/>
      <point x="429" y="66" type="curve"/>
      <point x="437" y="66" type="line"/>
      <point x="437" y="48" type="line" smooth="yes"/>
      <point x="437" y="14"/>
      <point x="455" y="0"/>
    </contour>
  </outline>
</glyph>
<glyph name="b" format="2">
  <advance width="630"/>
  <unicode hex="0062"/>
  <anchor x="315" y="0" name="bottom"/>
  <anchor x="158" y="560" name="center"/>
  <anchor x="315" y="500" name="top"/>
  <outline>
    <contour>
      <point x="340" y="-10" type="curve" smooth="yes"/>
      <point x="467" y="-10"/>
      <point x="562" y="78"/>
      <point x="562" y="250" type="curve" smooth="yes"/>
      <point x="562" y="422"/>
      <point x="465" y="510"/>
      <point x="339" y="510" type="curve" smooth="yes"/>
      <point x="272" y="510"/>
      <point x="215" y="484"/>
      <point x="184" y="434" type="curve"/>
      <point x="178" y="434" type="line"/>
      <point x="178" y="700" type="line"/>
      <point x="84" y="700" type="line"/>
      <point x="84" y="0" type="line"/>
      <point x="172" y="0" type="line"/>
      <point x="172" y="69" type="line"/>
      <point x="180" y="69" type="line"/>
      <point x="208" y="25"/>
      <point x="265" y="-10"/>
    </contour>
    <contour>
      <point x="322" y="70" type="curve" smooth="yes"/>
      <point x="233" y="70"/>
      <point x="178" y="129"/>
      <point x="178" y="250" type="curve" smooth="yes"/>
      <point x="178" y="367"/>
      <point x="233" y="430"/>
      <point x="322" y="430" type="curve" smooth="yes"/>
      <point x="411" y="430"/>
      <point x="466" y="367"/>
      <point x="466" y="250" type="curve" smooth="yes"/>
      <point x="466" y="129"/>
      <point x="411" y="70"/>
    </contour>
  </outline>
</glyph>
<glyph name="c" format="2">
  <advance width="630"/>
  <unicode hex="0063"/>
  <anchor x="315" y="0" name="bottom"/>
  <anchor x="315" y="500" name="top"/>
  <outline>
    <contour>
      <point x="592" y="172" type="line"/>
      <point x="408" y="172" type="line"/>
      <point x="457" y="205" type="line"/>
      <point x="447" y="121"/>
      <point x="400" y="70"/>
      <point x="323" y="70" type="curve" smooth="yes"/>
      <point x="232" y="70"/>
      <point x="183" y="137"/>
      <point x="183" y="250" type="curve" smooth="yes"/>
      <point x="183" y="363"/>
      <point x="230" y="430"/>
      <point x="321" y="430" type="curve" smooth="yes"/>
      <point x="404" y="430"/>
      <point x="449" y="366"/>
      <point x="449" y="288" type="curve"/>
      <point x="401" y="316" type="line"/>
      <point x="585" y="316" type="line"/>
      <point x="543" y="294" type="line"/>
      <point x="543" y="429"/>
      <point x="449" y="510"/>
      <point x="321" y="510" type="curve" smooth="yes"/>
      <point x="179" y="510"/>
      <point x="85" y="414"/>
      <point x="85" y="250" type="curve" smooth="yes"/>
      <point x="85" y="86"/>
      <point x="179" y="-10"/>
      <point x="323" y="-10" type="curve" smooth="yes"/>
      <point x="461" y="-10"/>
      <point x="542" y="74"/>
      <point x="551" y="199" type="curve"/>
    </contour>
  </outline>
</glyph>
<glyph name="e" format="2">
  <advance width="630"/>
  <unicode hex="0065"/>
  <anchor x="315" y="0" name="bottom"/>
  <anchor x="394" y="0" name="ogonek"/>
  <anchor x="315" y="500" name="top"/>
  <outline>
    <contour>
      <point x="320" y="-10" type="curve" smooth="yes"/>
      <point x="441" y="-10"/>
      <point x="530" y="55"/>
      <point x="547" y="172" type="curve"/>
      <point x="585" y="145" type="line"/>
      <point x="405" y="145" type="line"/>
      <point x="453" y="176" type="line"/>
      <point x="448" y="115"/>
      <point x="402" y="69"/>
      <point x="320" y="69" type="curve" smooth="yes"/>
      <point x="232" y="69"/>
      <point x="183" y="130"/>
      <point x="183" y="231" type="curve" smooth="yes"/>
      <point x="183" y="273" type="line" smooth="yes"/>
      <point x="183" y="368"/>
      <point x="228" y="433"/>
      <point x="318" y="433" type="curve" smooth="yes"/>
      <point x="401" y="433"/>
      <point x="453" y="368"/>
      <point x="453" y="273" type="curve" smooth="yes"/>
      <point x="453" y="258"/>
      <point x="453" y="244"/>
      <point x="453" y="229" type="curve"/>
      <point x="494" y="291" type="line"/>
      <point x="159" y="291" type="line"/>
      <point x="159" y="216" type="line"/>
      <point x="545" y="216" type="line"/>
      <point x="547" y="232"/>
      <point x="548" y="250"/>
      <point x="548" y="266" type="curve" smooth="yes"/>
      <point x="548" y="410"/>
      <point x="458" y="510"/>
      <point x="323" y="510" type="curve" smooth="yes"/>
      <point x="179" y="510"/>
      <point x="88" y="410"/>
      <point x="88" y="250" type="curve" smooth="yes"/>
      <point x="88" y="85"/>
      <point x="185" y="-10"/>
    </contour>
  </outline>
</glyph>
<glyph name="f" format="2">
  <advance width="630"/>
  <unicode hex="0066"/>
  <anchor x="315" y="0" name="bottom"/>
  <anchor x="315" y="700" name="top"/>
  <outline>
    <contour>
      <point x="100" y="0" type="line"/>
      <point x="541" y="0" type="line"/>
      <point x="541" y="80" type="line"/>
      <point x="351" y="80" type="line"/>
      <point x="351" y="420" type="line"/>
      <point x="561" y="420" type="line"/>
      <point x="561" y="500" type="line"/>
      <point x="351" y="500" type="line"/>
      <point x="351" y="620" type="line"/>
      <point x="573" y="620" type="line"/>
      <point x="573" y="700" type="line"/>
      <point x="353" y="700" type="line" smooth="yes"/>
      <point x="285" y="700"/>
      <point x="257" y="673"/>
      <point x="257" y="605" type="curve" smooth="yes"/>
      <point x="257" y="500" type="line"/>
      <point x="81" y="500" type="line"/>
      <point x="81" y="420" type="line"/>
      <point x="257" y="420" type="line"/>
      <point x="257" y="80" type="line"/>
      <point x="100" y="80" type="line"/>
    </contour>
  </outline>
</glyph>
<glyph name="g" format="2">
  <advance width="630"/>
  <unicode hex="0067"/>
  <anchor x="315" y="-200" name="bottom"/>
  <anchor x="315" y="500" name="top"/>
  <outline>
    <contour>
      <point x="213" y="-200" type="curve" smooth="yes"/>
      <point x="375" y="-200" type="line" smooth="yes"/>
      <point x="490" y="-200"/>
      <point x="547" y="-150"/>
      <point x="547" y="-58" type="curve" smooth="yes"/>
      <point x="547" y="33"/>
      <point x="490" y="80"/>
      <point x="375" y="80" type="curve" smooth="yes"/>
      <point x="229" y="80" type="line" smooth="yes"/>
      <point x="185" y="80"/>
      <point x="168" y="96"/>
      <point x="168" y="123" type="curve" smooth="yes"/>
      <point x="168" y="150"/>
      <point x="191" y="166"/>
      <point x="229" y="166" type="curve" smooth="yes"/>
      <point x="313" y="166" type="line"/>
      <point x="173" y="235" type="line"/>
      <point x="173" y="200" type="line"/>
      <point x="112" y="184"/>
      <point x="81" y="153"/>
      <point x="81" y="102" type="curve" smooth="yes"/>
      <point x="81" y="37"/>
      <point x="131" y="-6"/>
      <point x="222" y="-6" type="curve" smooth="yes"/>
      <point x="383" y="-6" type="line" smooth="yes"/>
      <point x="425" y="-6"/>
      <point x="453" y="-27"/>
      <point x="453" y="-64" type="curve" smooth="yes"/>
      <point x="453" y="-102"/>
      <point x="425" y="-121"/>
      <point x="383" y="-121" type="curve" smooth="yes"/>
      <point x="216" y="-121" type="line" smooth="yes"/>
      <point x="174" y="-121"/>
      <point x="146" y="-102"/>
      <point x="146" y="-64" type="curve" smooth="yes"/>
      <point x="146" y="-27"/>
      <point x="174" y="-6"/>
      <point x="216" y="-6" type="curve"/>
      <point x="131" y="42" type="line"/>
      <point x="131" y="7" type="line"/>
      <point x="84" y="-8"/>
      <point x="57" y="-46"/>
      <point x="57" y="-92" type="curve" smooth="yes"/>
      <point x="57" y="-158"/>
      <point x="99" y="-200"/>
    </contour>
    <contour>
      <point x="313" y="166" type="curve" smooth="yes"/>
      <point x="429" y="166"/>
      <point x="514" y="228"/>
      <point x="514" y="344" type="curve" smooth="yes"/>
      <point x="514" y="410" type="line"/>
      <point x="590" y="410" type="line"/>
      <point x="590" y="500" type="line"/>
      <point x="542" y="500" type="line" smooth="yes"/>
      <point x="496" y="500"/>
      <point x="479" y="473"/>
      <point x="479" y="442" type="curve"/>
      <point x="471" y="442" type="line"/>
      <point x="441" y="485"/>
      <point x="379" y="510"/>
      <point x="311" y="510" type="curve" smooth="yes"/>
      <point x="195" y="510"/>
      <point x="112" y="452"/>
      <point x="112" y="338" type="curve" smooth="yes"/>
      <point x="112" y="230"/>
      <point x="197" y="166"/>
    </contour>
    <contour>
      <point x="313" y="236" type="curve" smooth="yes"/>
      <point x="247" y="236"/>
      <point x="202" y="274"/>
      <point x="202" y="338" type="curve" smooth="yes"/>
      <point x="202" y="402"/>
      <point x="247" y="439"/>
      <point x="313" y="439" type="curve" smooth="yes"/>
      <point x="379" y="439"/>
      <point x="424" y="402"/>
      <point x="424" y="338" type="curve" smooth="yes"/>
      <point x="424" y="274"/>
      <point x="379" y="236"/>
    </contour>
  </outline>
</glyph>
<glyph name="h" format="2">
  <advance width="630"/>
  <unicode hex="0068"/>
  <anchor x="315" y="0" name="bottom"/>
  <anchor x="158" y="585" name="center"/>
  <anchor x="315" y="700" name="top"/>
  <outline>
    <contour>
      <point x="105" y="0" type="line"/>
      <point x="199" y="0" type="line"/>
      <point x="199" y="270" type="line" smooth="yes"/>
      <point x="199" y="382"/>
      <point x="252" y="430"/>
      <point x="325" y="430" type="curve" smooth="yes"/>
      <point x="395" y="430"/>
      <point x="438" y="394"/>
      <point x="438" y="284" type="curve" smooth="yes"/>
      <point x="438" y="0" type="line"/>
      <point x="532" y="0" type="line"/>
      <point x="532" y="298" type="line" smooth="yes"/>
      <point x="532" y="441"/>
      <point x="468" y="510"/>
      <point x="359" y="510" type="curve" smooth="yes"/>
      <point x="284" y="510"/>
      <point x="235" y="480"/>
      <point x="207" y="433" type="curve"/>
      <point x="199" y="433" type="line"/>
      <point x="199" y="700" type="line"/>
      <point x="105" y="700" type="line"/>
    </contour>
  </outline>
</glyph>
<glyph name="k" format="2">
  <advance width="630"/>
  <unicode hex="006B"/>
  <anchor x="315" y="0" name="bottom"/>
  <anchor x="315" y="700" name="top"/>
  <outline>
    <contour>
      <point x="159" y="127" type="line"/>
      <point x="196" y="127" type="line"/>
      <point x="548" y="500" type="line"/>
      <point x="435" y="500" type="line"/>
      <point x="224" y="277" type="line"/>
      <point x="216" y="277" type="line"/>
      <point x="159" y="277" type="line"/>
    </contour>
    <contour>
      <point x="122" y="0" type="line"/>
      <point x="216" y="0" type="line"/>
      <point x="216" y="700" type="line"/>
      <point x="122" y="700" type="line"/>
    </contour>
    <contour>
      <point x="468" y="0" type="line"/>
      <point x="574" y="0" type="line"/>
      <point x="353" y="380" type="line"/>
      <point x="300" y="291" type="line"/>
      <point x="300" y="252" type="line"/>
      <point x="322" y="252" type="line"/>
    </contour>
  </outline>
</glyph>
<glyph name="l" format="2">
  <advance width="630"/>
  <unicode hex="006C"/>
  <anchor x="315" y="0" name="bottom"/>
  <anchor x="315" y="363" name="center"/>
  <anchor x="315" y="700" name="top"/>
  <anchor x="411" y="700" name="topright"/>
  <outline>
    <contour>
      <point x="80" y="0" type="line"/>
      <point x="550" y="0" type="line"/>
      <point x="550" y="80" type="line"/>
      <point x="362" y="80" type="line"/>
      <point x="362" y="700" type="line"/>
      <point x="99" y="700" type="line"/>
      <point x="99" y="620" type="line"/>
      <point x="268" y="620" type="line"/>
      <point x="268" y="80" type="line"/>
      <point x="80" y="80" type="line"/>
    </contour>
  </outline>
</glyph>
<glyph name="m" format="2">
  <advance width="630"/>
  <unicode hex="006D"/>
  <anchor x="315" y="0" name="bottom"/>
  <anchor x="315" y="500" name="top"/>
  <outline>
    <contour>
      <point x="71" y="0" type="line"/>
      <point x="163" y="0" type="line"/>
      <point x="163" y="357" type="line" smooth="yes"/>
      <point x="163" y="406"/>
      <point x="181" y="433"/>
      <point x="222" y="433" type="curve" smooth="yes"/>
      <point x="251" y="433"/>
      <point x="274" y="413"/>
      <point x="274" y="370" type="curve" smooth="yes"/>
      <point x="274" y="0" type="line"/>
      <point x="366" y="0" type="line"/>
      <point x="366" y="357" type="line" smooth="yes"/>
      <point x="366" y="406"/>
      <point x="384" y="433"/>
      <point x="425" y="433" type="curve" smooth="yes"/>
      <point x="454" y="433"/>
      <point x="477" y="413"/>
      <point x="477" y="370" type="curve" smooth="yes"/>
      <point x="477" y="0" type="line"/>
      <point x="568" y="0" type="line"/>
      <point x="568" y="378" type="line" smooth="yes"/>
      <point x="568" y="462"/>
      <point x="530" y="510"/>
      <point x="463" y="510" type="curve" smooth="yes"/>
      <point x="412" y="510"/>
      <point x="379" y="485"/>
      <point x="360" y="456" type="curve"/>
      <point x="352" y="456" type="line"/>
      <point x="338" y="486"/>
      <point x="307" y="510"/>
      <point x="259" y="510" type="curve" smooth="yes"/>
      <point x="211" y="510"/>
      <point x="175" y="488"/>
      <point x="160" y="457" type="curve"/>
      <point x="152" y="457" type="line"/>
      <point x="152" y="500" type="line"/>
      <point x="71" y="500" type="line"/>
    </contour>
  </outline>
</glyph>
<glyph name="n" format="2">
  <advance width="630"/>
  <unicode hex="006E"/>
  <anchor x="315" y="0" name="bottom"/>
  <anchor x="315" y="500" name="top"/>
  <outline>
    <contour>
      <point x="114" y="0" type="line"/>
      <point x="208" y="0" type="line"/>
      <point x="208" y="270" type="line" smooth="yes"/>
      <point x="208" y="382"/>
      <point x="261" y="430"/>
      <point x="334" y="430" type="curve" smooth="yes"/>
      <point x="404" y="430"/>
      <point x="447" y="394"/>
      <point x="447" y="284" type="curve" smooth="yes"/>
      <point x="447" y="0" type="line"/>
      <point x="541" y="0" type="line"/>
      <point x="541" y="298" type="line" smooth="yes"/>
      <point x="541" y="441"/>
      <point x="477" y="510"/>
      <point x="368" y="510" type="curve" smooth="yes"/>
      <point x="293" y="510"/>
      <point x="239" y="478"/>
      <point x="210" y="425" type="curve"/>
      <point x="202" y="425" type="line"/>
      <point x="202" y="500" type="line"/>
      <point x="114" y="500" type="line"/>
    </contour>
  </outline>
</glyph>
<glyph name="o" format="2">
  <advance width="630"/>
  <unicode hex="006F"/>
  <anchor x="315" y="0" name="bottom"/>
  <anchor x="315" y="250" name="center"/>
  <anchor x="567" y="10" name="ogonek"/>
  <anchor x="315" y="500" name="top"/>
  <anchor x="610" y="500" name="topright"/>
  <outline>
    <contour>
      <point x="315" y="-10" type="curve" smooth="yes"/>
      <point x="455" y="-10"/>
      <point x="555" y="86"/>
      <point x="555" y="250" type="curve" smooth="yes"/>
      <point x="555" y="414"/>
      <point x="455" y="510"/>
      <point x="315" y="510" type="curve" smooth="yes"/>
      <point x="175" y="510"/>
      <point x="75" y="414"/>
      <point x="75" y="250" type="curve" smooth="yes"/>
      <point x="75" y="86"/>
      <point x="175" y="-10"/>
    </contour>
    <contour>
      <point x="315" y="70" type="curve" smooth="yes"/>
      <point x="226" y="70"/>
      <point x="171" y="133"/>
      <point x="171" y="250" type="curve" smooth="yes"/>
      <point x="171" y="367"/>
      <point x="226" y="430"/>
      <point x="315" y="430" type="curve" smooth="yes"/>
      <point x="404" y="430"/>
      <point x="459" y="367"/>
      <point x="459" y="250" type="curve" smooth="yes"/>
      <point x="459" y="133"/>
      <point x="404" y="70"/>
    </contour>
  </outline>
</glyph>
<glyph name="p" format="2">
  <advance width="630"/>
  <unicode hex="0070"/>
  <anchor x="315" y="0" name="bottom"/>
  <anchor x="315" y="500" name="top"/>
  <outline>
    <contour>
      <point x="340" y="510" type="curve" smooth="yes"/>
      <point x="265" y="510"/>
      <point x="208" y="475"/>
      <point x="180" y="431" type="curve"/>
      <point x="172" y="431" type="line"/>
      <point x="172" y="500" type="line"/>
      <point x="84" y="500" type="line"/>
      <point x="84" y="-200" type="line"/>
      <point x="178" y="-200" type="line"/>
      <point x="178" y="66" type="line"/>
      <point x="184" y="66" type="line"/>
      <point x="215" y="16"/>
      <point x="272" y="-10"/>
      <point x="339" y="-10" type="curve" smooth="yes"/>
      <point x="465" y="-10"/>
      <point x="562" y="78"/>
      <point x="562" y="250" type="curve" smooth="yes"/>
      <point x="562" y="422"/>
      <point x="467" y="510"/>
    </contour>
    <contour>
      <point x="322" y="430" type="curve" smooth="yes"/>
      <point x="411" y="430"/>
      <point x="466" y="371"/>
      <point x="466" y="250" type="curve" smooth="yes"/>
      <point x="466" y="133"/>
      <point x="411" y="70"/>
      <point x="322" y="70" type="curve" smooth="yes"/>
      <point x="233" y="70"/>
      <point x="178" y="133"/>
      <point x="178" y="250" type="curve" smooth="yes"/>
      <point x="178" y="371"/>
      <point x="233" y="430"/>
    </contour>
  </outline>
</glyph>
<glyph name="r" format="2">
  <advance width="630"/>
  <unicode hex="0072"/>
  <anchor x="315" y="0" name="bottom"/>
  <anchor x="315" y="500" name="top"/>
  <outline>
    <contour>
      <point x="100" y="0" type="line"/>
      <point x="511" y="0" type="line"/>
      <point x="511" y="80" type="line"/>
      <point x="331" y="80" type="line"/>
      <point x="331" y="265" type="line" smooth="yes"/>
      <point x="331" y="375"/>
      <point x="374" y="414"/>
      <point x="492" y="414" type="curve" smooth="yes"/>
      <point x="579" y="414" type="line"/>
      <point x="579" y="500" type="line"/>
      <point x="488" y="500" type="line" smooth="yes"/>
      <point x="405" y="500"/>
      <point x="356" y="475"/>
      <point x="339" y="413" type="curve"/>
      <point x="331" y="413" type="line"/>
      <point x="331" y="500" type="line"/>
      <point x="110" y="500" type="line"/>
      <point x="110" y="420" type="line"/>
      <point x="238" y="420" type="line"/>
      <point x="238" y="80" type="line"/>
      <point x="100" y="80" type="line"/>
    </contour>
  </outline>
</glyph>
<glyph name="s" format="2">
  <advance width="630"/>
  <unicode hex="0073"/>
  <anchor x="335" y="0" name="bottom"/>
  <anchor x="323" y="500" name="top"/>
  <outline>
    <contour>
      <point x="319" y="-10" type="curve" smooth="yes"/>
      <point x="454" y="-10"/>
      <point x="516" y="55"/>
      <point x="516" y="140" type="curve" smooth="yes"/>
      <point x="516" y="219"/>
      <point x="468" y="259"/>
      <point x="378" y="281" type="curve" smooth="yes"/>
      <point x="303" y="299" type="line" smooth="yes"/>
      <point x="247" y="312"/>
      <point x="223" y="328"/>
      <point x="223" y="366" type="curve" smooth="yes"/>
      <point x="223" y="408"/>
      <point x="261" y="434"/>
      <point x="320" y="434" type="curve" smooth="yes"/>
      <point x="384" y="434"/>
      <point x="421" y="404"/>
      <point x="421" y="334" type="curve"/>
      <point x="376" y="355" type="line"/>
      <point x="559" y="355" type="line"/>
      <point x="513" y="336" type="line"/>
      <point x="513" y="437"/>
      <point x="448" y="510"/>
      <point x="320" y="510" type="curve" smooth="yes"/>
      <point x="202" y="510"/>
      <point x="133" y="442"/>
      <point x="133" y="360" type="curve" smooth="yes"/>
      <point x="133" y="280"/>
      <point x="181" y="237"/>
      <point x="269" y="217" type="curve" smooth="yes"/>
      <point x="342" y="200" type="line" smooth="yes"/>
      <point x="399" y="187"/>
      <point x="426" y="171"/>
      <point x="426" y="131" type="curve" smooth="yes"/>
      <point x="426" y="90"/>
      <point x="395" y="64"/>
      <point x="324" y="64" type="curve" smooth="yes"/>
      <point x="250" y="64"/>
      <point x="207" y="101"/>
      <point x="207" y="163" type="curve"/>
      <point x="233" y="147" type="line"/>
      <point x="90" y="147" type="line"/>
      <point x="114" y="159" type="line"/>
      <point x="114" y="61"/>
      <point x="188" y="-10"/>
    </contour>
  </outline>
</glyph>
<glyph name="t" format="2">
  <advance width="630"/>
  <unicode hex="0074"/>
  <anchor x="315" y="0" name="bottom"/>
  <anchor x="315" y="250" name="center"/>
  <anchor x="315" y="660" name="top"/>
  <anchor x="610" y="700" name="topright"/>
  <outline>
    <contour>
      <point x="309" y="0" type="curve" smooth="yes"/>
      <point x="529" y="0" type="line"/>
      <point x="529" y="80" type="line"/>
      <point x="307" y="80" type="line"/>
      <point x="307" y="420" type="line"/>
      <point x="529" y="420" type="line"/>
      <point x="529" y="500" type="line"/>
      <point x="307" y="500" type="line"/>
      <point x="307" y="660" type="line"/>
      <point x="213" y="660" type="line"/>
      <point x="213" y="537" type="line" smooth="yes"/>
      <point x="213" y="513"/>
      <point x="200" y="500"/>
      <point x="176" y="500" type="curve" smooth="yes"/>
      <point x="57" y="500" type="line"/>
      <point x="57" y="420" type="line"/>
      <point x="213" y="420" type="line"/>
      <point x="213" y="95" type="line" smooth="yes"/>
      <point x="213" y="27"/>
      <point x="241" y="0"/>
    </contour>
  </outline>
</glyph>
<glyph name="u" format="2">
  <advance width="630"/>
  <unicode hex="0075"/>
  <anchor x="315" y="0" name="bottom"/>
  <anchor x="396" y="0" name="ogonek"/>
  <anchor x="315" y="500" name="top"/>
  <anchor x="610" y="500" name="topright"/>
  <outline>
    <contour>
      <point x="315" y="-10" type="curve" smooth="yes"/>
      <point x="442" y="-10"/>
      <point x="524" y="49"/>
      <point x="524" y="192" type="curve" smooth="yes"/>
      <point x="524" y="500" type="line"/>
      <point x="430" y="500" type="line"/>
      <point x="430" y="204" type="line" smooth="yes"/>
      <point x="430" y="112"/>
      <point x="390" y="70"/>
      <point x="315" y="70" type="curve" smooth="yes"/>
      <point x="239" y="70"/>
      <point x="200" y="112"/>
      <point x="200" y="204" type="curve" smooth="yes"/>
      <point x="200" y="500" type="line"/>
      <point x="106" y="500" type="line"/>
      <point x="106" y="192" type="line" smooth="yes"/>
      <point x="106" y="49"/>
      <point x="188" y="-10"/>
    </contour>
  </outline>
</glyph>
<glyph name="v" format="2">
  <advance width="630"/>
  <unicode hex="0076"/>
  <anchor x="315" y="0" name="bottom"/>
  <anchor x="315" y="500" name="top"/>
  <outline>
    <contour>
      <point x="319" y="113" type="line"/>
      <point x="311" y="113" type="line"/>
      <point x="182" y="500" type="line"/>
      <point x="82" y="500" type="line"/>
      <point x="260" y="0" type="line"/>
      <point x="368" y="0" type="line"/>
      <point x="548" y="500" type="line"/>
      <point x="448" y="500" type="line"/>
    </contour>
  </outline>
</glyph>
<glyph name="w" format="2">
  <advance width="630"/>
  <unicode hex="0077"/>
  <anchor x="315" y="0" name="bottom"/>
  <anchor x="315" y="500" name="top"/>
  <outline>
    <contour>
      <point x="127" y="0" type="line"/>
      <point x="243" y="0" type="line"/>
      <point x="311" y="380" type="line"/>
      <point x="319" y="380" type="line"/>
      <point x="387" y="0" type="line"/>
      <point x="504" y="0" type="line"/>
      <point x="559" y="500" type="line"/>
      <point x="471" y="500" type="line"/>
      <point x="439" y="120" type="line"/>
      <point x="431" y="120" type="line"/>
      <point x="361" y="500" type="line"/>
      <point x="269" y="500" type="line"/>
      <point x="199" y="120" type="line"/>
      <point x="191" y="120" type="line"/>
      <point x="159" y="500" type="line"/>
      <point x="71" y="500" type="line"/>
    </contour>
  </outline>
</glyph>
<glyph name="x" format="2">
  <advance width="630"/>
  <unicode hex="0078"/>
  <anchor x="315" y="0" name="bottom"/>
  <anchor x="315" y="500" name="top"/>
  <outline>
    <contour>
      <point x="78" y="0" type="line"/>
      <point x="185" y="0" type="line"/>
      <point x="311" y="187" type="line"/>
      <point x="319" y="187" type="line"/>
      <point x="445" y="0" type="line"/>
      <point x="552" y="0" type="line"/>
      <point x="379" y="250" type="line"/>
      <point x="545" y="500" type="line"/>
      <point x="438" y="500" type="line"/>
      <point x="319" y="313" type="line"/>
      <point x="311" y="313" type="line"/>
      <point x="192" y="500" type="line"/>
      <point x="85" y="500" type="line"/>
      <point x="251" y="250" type="line"/>
    </contour>
  </outline>
</glyph>
<glyph name="y" format="2">
  <advance width="630"/>
  <unicode hex="0079"/>
  <anchor x="315" y="0" name="bottom"/>
  <anchor x="315" y="500" name="top"/>
  <outline>
    <contour>
      <point x="324" y="113" type="line"/>
      <point x="316" y="113" type="line"/>
      <point x="187" y="500" type="line"/>
      <point x="88" y="500" type="line"/>
      <point x="290" y="-70" type="line"/>
      <point x="284" y="9" type="line"/>
      <point x="235" y="-119" type="line"/>
      <point x="107" y="-119" type="line"/>
      <point x="107" y="-200" type="line"/>
      <point x="218" y="-200" type="line" smooth="yes"/>
      <point x="280" y="-200"/>
      <point x="310" y="-182"/>
      <point x="329" y="-128" type="curve" smooth="yes"/>
      <point x="552" y="500" type="line"/>
      <point x="453" y="500" type="line"/>
    </contour>
  </outline>
</glyph>
<glyph name="z" format="2">
  <advance width="630"/>
  <unicode hex="007A"/>
  <anchor x="315" y="0" name="bottom"/>
  <anchor x="315" y="250" name="center"/>
  <anchor x="315" y="500" name="top"/>
  <outline>
    <contour>
      <point x="114" y="0" type="line"/>
      <point x="515" y="0" type="line"/>
      <point x="515" y="80" type="line"/>
      <point x="223" y="80" type="line"/>
      <point x="509" y="420" type="line"/>
      <point x="509" y="500" type="line"/>
      <point x="121" y="500" type="line"/>
      <point x="121" y="420" type="line"/>
      <point x="400" y="420" type="line"/>
      <point x="114" y="80" type="line"/>
    </contour>
  </outline>
</glyph>
<glyph name="braceleft" format="2">
  <advance width="630"/>
  <unicode hex="007B"/>
  <outline>
    <contour>
      <point x="127" y="307" type="line"/>
      <point x="174" y="297"/>
      <point x="217" y="287"/>
      <point x="217" y="192" type="curve" smooth="yes"/>
      <point x="217" y="9" type="line" smooth="yes"/>
      <point x="217" y="-69"/>
      <point x="253" y="-105"/>
      <point x="331" y="-105" type="curve" smooth="yes"/>
      <point x="502" y="-105" type="line"/>
      <point x="502" y="-25" type="line"/>
      <point x="308" y="-25" type="line"/>
      <point x="308" y="231" type="line" smooth="yes"/>
      <point x="308" y="296"/>
      <point x="283" y="331"/>
      <point x="219" y="341" type="curve"/>
      <point x="219" y="349" type="line"/>
      <point x="283" y="359"/>
      <point x="308" y="394"/>
      <point x="308" y="459" type="curve" smooth="yes"/>
      <point x="308" y="715" type="line"/>
      <point x="502" y="715" type="line"/>
      <point x="502" y="795" type="line"/>
      <point x="331" y="795" type="line" smooth="yes"/>
      <point x="253" y="795"/>
      <point x="217" y="759"/>
      <point x="217" y="681" type="curve" smooth="yes"/>
      <point x="217" y="498" type="line" smooth="yes"/>
      <point x="217" y="403"/>
      <point x="174" y="393"/>
      <point x="127" y="383" type="curve"/>
    </contour>
  </outline>
</glyph>
<glyph name="AE" format="2">
  <advance width="630"/>
  <unicode hex="00C6"/>
  <outline>
    <contour>
      <point x="386" y="620" type="line"/>
      <point x="386" y="700" type="line"/>
      <point x="209" y="700" type="line"/>
      <point x="30" y="0" type="line"/>
      <point x="125" y="0" type="line"/>
      <point x="277" y="620" type="line"/>
    </contour>
    <contour>
      <point x="165" y="288" type="line"/>
      <point x="145" y="208" type="line"/>
      <point x="386" y="208" type="line"/>
      <point x="386" y="288" type="line"/>
    </contour>
    <contour>
      <point x="325" y="0" type="line"/>
      <point x="594" y="0" type="line"/>
      <point x="594" y="80" type="line"/>
      <point x="415" y="80" type="line"/>
      <point x="415" y="320" type="line"/>
      <point x="540" y="320" type="line"/>
      <point x="540" y="400" type="line"/>
      <point x="415" y="400" type="line"/>
      <point x="415" y="620" type="line"/>
      <point x="584" y="620" type="line"/>
      <point x="584" y="700" type="line"/>
      <point x="325" y="700" type="line"/>
    </contour>
  </outline>
</glyph>
<glyph name="Thorn" format="2">
  <advance width="630"/>
  <unicode hex="00DE"/>
  <outline>
    <contour>
      <point x="158" y="155" type="line"/>
      <point x="348" y="155" type="line" smooth="yes"/>
      <point x="492" y="155"/>
      <point x="578" y="230"/>
      <point x="578" y="366" type="curve" smooth="yes"/>
      <point x="578" y="502"/>
      <point x="496" y="577"/>
      <point x="350" y="577" type="curve" smooth="yes"/>
      <point x="158" y="577" type="line"/>
      <point x="158" y="491" type="line"/>
      <point x="341" y="491" type="line" smooth="yes"/>
      <point x="442" y="491"/>
      <point x="482" y="434"/>
      <point x="482" y="366" type="curve" smooth="yes"/>
      <point x="482" y="282"/>
      <point x="440" y="241"/>
      <point x="340" y="241" type="curve" smooth="yes"/>
      <point x="158" y="241" type="line"/>
    </contour>
    <contour>
      <point x="119" y="0" type="line"/>
      <point x="215" y="0" type="line"/>
      <point x="215" y="700" type="line"/>
      <point x="119" y="700" type="line"/>
    </contour>
  </outline>
</glyph>
<glyph name="germandbls" format="2">
  <advance width="630"/>
  <unicode hex="00DF"/>
  <outline>
    <contour>
      <point x="121" y="0" type="line"/>
      <point x="217" y="0" type="line"/>
      <point x="217" y="486" type="line" smooth="yes"/>
      <point x="217" y="576"/>
      <point x="261" y="614"/>
      <point x="323" y="614" type="curve" smooth="yes"/>
      <point x="385" y="614"/>
      <point x="429" y="573"/>
      <point x="429" y="508" type="curve" smooth="yes"/>
      <point x="429" y="449"/>
      <point x="395" y="406"/>
      <point x="314" y="406" type="curve" smooth="yes"/>
      <point x="304" y="406" type="line"/>
      <point x="304" y="320" type="line"/>
      <point x="319" y="320" type="line" smooth="yes"/>
      <point x="405" y="320"/>
      <point x="450" y="277"/>
      <point x="450" y="203" type="curve" smooth="yes"/>
      <point x="450" y="129"/>
      <point x="405" y="86"/>
      <point x="319" y="86" type="curve" smooth="yes"/>
      <point x="304" y="86" type="line"/>
      <point x="304" y="0" type="line"/>
      <point x="330" y="0" type="line" smooth="yes"/>
      <point x="467" y="0"/>
      <point x="546" y="75"/>
      <point x="546" y="194" type="curve" smooth="yes"/>
      <point x="546" y="285"/>
      <point x="507" y="338"/>
      <point x="437" y="363" type="curve"/>
      <point x="437" y="371" type="line"/>
      <point x="483" y="394"/>
      <point x="525" y="437"/>
      <point x="525" y="519" type="curve" smooth="yes"/>
      <point x="525" y="609"/>
      <point x="468" y="700"/>
      <point x="327" y="700" type="curve" smooth="yes"/>
      <point x="179" y="700"/>
      <point x="121" y="607"/>
      <point x="121" y="486" type="curve" smooth="yes"/>
    </contour>
  </outline>
</glyph>
<glyph name="ae" format="2">
  <advance width="630"/>
  <unicode hex="00E6"/>
  <outline>
    <contour>
      <point x="188" y="-6" type="curve" smooth="yes"/>
      <point x="259" y="-6"/>
      <point x="299" y="23"/>
      <point x="321" y="66" type="curve"/>
      <point x="329" y="66" type="line"/>
      <point x="346" y="24"/>
      <point x="394" y="-5"/>
      <point x="451" y="-5" type="curve" smooth="yes"/>
      <point x="524" y="-5"/>
      <point x="590" y="38"/>
      <point x="607" y="145" type="curve"/>
      <point x="521" y="145" type="line"/>
      <point x="514" y="100"/>
      <point x="492" y="70"/>
      <point x="454" y="70" type="curve" smooth="yes"/>
      <point x="406" y="70"/>
      <point x="378" y="111"/>
      <point x="378" y="231" type="curve" smooth="yes"/>
      <point x="378" y="273" type="line" smooth="yes"/>
      <point x="378" y="397"/>
      <point x="408" y="435"/>
      <point x="455" y="435" type="curve" smooth="yes"/>
      <point x="494" y="435"/>
      <point x="522" y="401"/>
      <point x="525" y="291" type="curve"/>
      <point x="360" y="291" type="line"/>
      <point x="360" y="225" type="line"/>
      <point x="609" y="225" type="line"/>
      <point x="610" y="241"/>
      <point x="611" y="250"/>
      <point x="611" y="266" type="curve" smooth="yes"/>
      <point x="611" y="426"/>
      <point x="548" y="510"/>
      <point x="459" y="510" type="curve" smooth="yes"/>
      <point x="417" y="510"/>
      <point x="380" y="493"/>
      <point x="353" y="463" type="curve"/>
      <point x="345" y="463" type="line"/>
      <point x="319" y="495"/>
      <point x="281" y="510"/>
      <point x="222" y="510" type="curve" smooth="yes"/>
      <point x="122" y="510"/>
      <point x="59" y="448"/>
      <point x="53" y="350" type="curve"/>
      <point x="141" y="350" type="line"/>
      <point x="146" y="400"/>
      <point x="171" y="430"/>
      <point x="219" y="430" type="curve" smooth="yes"/>
      <point x="268" y="430"/>
      <point x="290" y="402"/>
      <point x="290" y="340" type="curve" smooth="yes"/>
      <point x="290" y="150" type="line" smooth="yes"/>
      <point x="290" y="90"/>
      <point x="252" y="64"/>
      <point x="207" y="64" type="curve" smooth="yes"/>
      <point x="165" y="64"/>
      <point x="135" y="88"/>
      <point x="135" y="132" type="curve" smooth="yes"/>
      <point x="135" y="193"/>
      <point x="192" y="225"/>
      <point x="278" y="225" type="curve" smooth="yes"/>
      <point x="305" y="225" type="line"/>
      <point x="305" y="291" type="line"/>
      <point x="267" y="291" type="line" smooth="yes"/>
      <point x="141" y="291"/>
      <point x="45" y="235"/>
      <point x="45" y="131" type="curve" smooth="yes"/>
      <point x="45" y="40"/>
      <point x="107" y="-6"/>
    </contour>
  </outline>
</glyph>
<glyph name="eth" format="2">
  <advance width="630"/>
  <unicode hex="00F0"/>
  <outline>
    <contour>
      <point x="311" y="-10" type="curve" smooth="yes"/>
      <point x="451" y="-10"/>
      <point x="555" y="86"/>
      <point x="555" y="265" type="curve" smooth="yes"/>
      <point x="555" y="470"/>
      <point x="431" y="598"/>
      <point x="310" y="700" type="curve"/>
      <point x="183" y="700" type="line"/>
      <point x="286" y="622"/>
      <point x="362" y="544"/>
      <point x="414" y="453" type="curve"/>
      <point x="402" y="448" type="line"/>
      <point x="374" y="481"/>
      <point x="335" y="500"/>
      <point x="273" y="500" type="curve" smooth="yes"/>
      <point x="164" y="500"/>
      <point x="75" y="404"/>
      <point x="75" y="245" type="curve" smooth="yes"/>
      <point x="75" y="86"/>
      <point x="171" y="-10"/>
    </contour>
    <contour>
      <point x="315" y="70" type="curve" smooth="yes"/>
      <point x="226" y="70"/>
      <point x="171" y="134"/>
      <point x="171" y="248" type="curve" smooth="yes"/>
      <point x="171" y="362"/>
      <point x="226" y="426"/>
      <point x="315" y="426" type="curve" smooth="yes"/>
      <point x="404" y="426"/>
      <point x="459" y="362"/>
      <point x="459" y="248" type="curve" smooth="yes"/>
      <point x="459" y="134"/>
      <point x="404" y="70"/>
    </contour>
    <contour>
      <point x="191" y="540" type="line"/>
      <point x="483" y="615" type="line"/>
      <point x="483" y="675" type="line"/>
      <point x="191" y="600" type="line"/>
    </contour>
  </outline>
</glyph>
<glyph name="thorn" format="2">
  <advance width="630"/>
  <unicode hex="00FE"/>
  <outline>
    <contour>
      <point x="84" y="-200" type="line"/>
      <point x="178" y="-200" type="line"/>
      <point x="178" y="66" type="line"/>
      <point x="184" y="66" type="line"/>
      <point x="215" y="16"/>
      <point x="272" y="-10"/>
      <point x="339" y="-10" type="curve" smooth="yes"/>
      <point x="465" y="-10"/>
      <point x="562" y="78"/>
      <point x="562" y="250" type="curve" smooth="yes"/>
      <point x="562" y="422"/>
      <point x="465" y="510"/>
      <point x="339" y="510" type="curve" smooth="yes"/>
      <point x="272" y="510"/>
      <point x="215" y="484"/>
      <point x="184" y="434" type="curve"/>
      <point x="178" y="434" type="line"/>
      <point x="178" y="700" type="line"/>
      <point x="84" y="700" type="line"/>
    </contour>
    <contour>
      <point x="466" y="250" type="curve" smooth="yes"/>
      <point x="466" y="133"/>
      <point x="411" y="70"/>
      <point x="322" y="70" type="curve" smooth="yes"/>
      <point x="233" y="70"/>
      <point x="178" y="133"/>
      <point x="178" y="250" type="curve" smooth="yes"/>
      <point x="178" y="367"/>
      <point x="233" y="430"/>
      <point x="322" y="430" type="curve" smooth="yes"/>
      <point x="411" y="430"/>
      <point x="466" y="367"/>
    </contour>
  </outline>
</glyph>
<glyph name="idotless" format="2">
  <advance width="630"/>
  <unicode hex="0131"/>
  <anchor x="315" y="0" name="bottom"/>
  <anchor x="524" y="0" name="ogonek"/>
  <anchor x="307" y="500" name="top"/>
  <outline>
    <contour>
      <point x="114" y="0" type="line"/>
      <point x="524" y="0" type="line"/>
      <point x="524" y="80" type="line"/>
      <point x="366" y="80" type="line"/>
      <point x="366" y="500" type="line"/>
      <point x="134" y="500" type="line"/>
      <point x="134" y="420" type="line"/>
      <point x="272" y="420" type="line"/>
      <point x="272" y="80" type="line"/>
      <point x="114" y="80" type="line"/>
    </contour>
  </outline>
</glyph>
<glyph name="OE" format="2">
  <advance width="630"/>
  <unicode hex="0152"/>
  <outline>
    <contour>
      <point x="216" y="-10" type="curve" smooth="yes"/>
      <point x="256" y="-10"/>
      <point x="301" y="7"/>
      <point x="327" y="53" type="curve"/>
      <point x="336" y="53" type="line"/>
      <point x="336" y="0" type="line"/>
      <point x="611" y="0" type="line"/>
      <point x="611" y="82" type="line"/>
      <point x="427" y="82" type="line"/>
      <point x="427" y="319" type="line"/>
      <point x="551" y="319" type="line"/>
      <point x="551" y="401" type="line"/>
      <point x="427" y="401" type="line"/>
      <point x="427" y="618" type="line"/>
      <point x="605" y="618" type="line"/>
      <point x="605" y="700" type="line"/>
      <point x="336" y="700" type="line"/>
      <point x="336" y="647" type="line"/>
      <point x="327" y="647" type="line"/>
      <point x="301" y="691"/>
      <point x="256" y="710"/>
      <point x="216" y="710" type="curve" smooth="yes"/>
      <point x="90" y="710"/>
      <point x="34" y="590"/>
      <point x="33" y="355" type="curve" smooth="yes"/>
      <point x="33" y="345" type="line" smooth="yes"/>
      <point x="34" y="110"/>
      <point x="90" y="-10"/>
    </contour>
    <contour>
      <point x="234" y="76" type="curve" smooth="yes"/>
      <point x="161" y="76"/>
      <point x="131" y="149"/>
      <point x="131" y="345" type="curve" smooth="yes"/>
      <point x="131" y="355" type="line" smooth="yes"/>
      <point x="131" y="551"/>
      <point x="161" y="624"/>
      <point x="234" y="624" type="curve" smooth="yes"/>
      <point x="303" y="624"/>
      <point x="333" y="551"/>
      <point x="334" y="355" type="curve" smooth="yes"/>
      <point x="334" y="345" type="line" smooth="yes"/>
      <point x="333" y="149"/>
      <point x="303" y="76"/>
    </contour>
  </outline>
</glyph>
<glyph name="oe" format="2">
  <advance width="630"/>
  <unicode hex="0153"/>
  <outline>
    <contour>
      <point x="196" y="-10" type="curve" smooth="yes"/>
      <point x="244" y="-10"/>
      <point x="284" y="10"/>
      <point x="311" y="60" type="curve"/>
      <point x="319" y="60" type="line"/>
      <point x="346" y="10"/>
      <point x="384" y="-10"/>
      <point x="432" y="-10" type="curve" smooth="yes"/>
      <point x="518" y="-10"/>
      <point x="572" y="54"/>
      <point x="588" y="164" type="curve"/>
      <point x="501" y="164" type="line"/>
      <point x="491" y="100"/>
      <point x="467" y="70"/>
      <point x="432" y="70" type="curve" smooth="yes"/>
      <point x="387" y="70"/>
      <point x="359" y="122"/>
      <point x="359" y="250" type="curve" smooth="yes"/>
      <point x="359" y="378"/>
      <point x="387" y="430"/>
      <point x="432" y="430" type="curve" smooth="yes"/>
      <point x="479" y="430"/>
      <point x="505" y="378"/>
      <point x="505" y="250" type="curve"/>
      <point x="547" y="294" type="line"/>
      <point x="346" y="294" type="line"/>
      <point x="346" y="223" type="line"/>
      <point x="593" y="223" type="line"/>
      <point x="593" y="232"/>
      <point x="593" y="241"/>
      <point x="593" y="250" type="curve" smooth="yes"/>
      <point x="593" y="417"/>
      <point x="542" y="510"/>
      <point x="438" y="510" type="curve" smooth="yes"/>
      <point x="389" y="510"/>
      <point x="347" y="489"/>
      <point x="319" y="438" type="curve"/>
      <point x="311" y="438" type="line"/>
      <point x="284" y="489"/>
      <point x="245" y="510"/>
      <point x="196" y="510" type="curve" smooth="yes"/>
      <point x="92" y="510"/>
      <point x="37" y="417"/>
      <point x="37" y="250" type="curve" smooth="yes"/>
      <point x="37" y="83"/>
      <point x="92" y="-10"/>
    </contour>
    <contour>
      <point x="198" y="70" type="curve" smooth="yes"/>
      <point x="153" y="70"/>
      <point x="125" y="122"/>
      <point x="125" y="250" type="curve" smooth="yes"/>
      <point x="125" y="378"/>
      <point x="153" y="430"/>
      <point x="198" y="430" type="curve" smooth="yes"/>
      <point x="244" y="430"/>
      <point x="271" y="378"/>
      <point x="271" y="250" type="curve" smooth="yes"/>
      <point x="271" y="122"/>
      <point x="244" y="70"/>
    </contour>
  </outline>
</glyph>
<glyph name="Schwa" format="2">
  <advance width="630"/>
  <unicode hex="018F"/>
  <anchor x="315" y="0" name="bottom"/>
  <anchor x="315" y="700" name="top"/>
  <outline>
    <contour>
      <point x="315" y="-10" type="curve" smooth="yes"/>
      <point x="475" y="-10"/>
      <point x="576" y="108"/>
      <point x="576" y="350" type="curve" smooth="yes"/>
      <point x="576" y="592"/>
      <point x="477" y="710"/>
      <point x="315" y="710" type="curve" smooth="yes"/>
      <point x="169" y="710"/>
      <point x="75" y="612"/>
      <point x="70" y="460" type="curve"/>
      <point x="26" y="483" type="line"/>
      <point x="216" y="483" type="line"/>
      <point x="167" y="456" type="line"/>
      <point x="175" y="548"/>
      <point x="224" y="624"/>
      <point x="315" y="624" type="curve" smooth="yes"/>
      <point x="442" y="624"/>
      <point x="478" y="517"/>
      <point x="478" y="350" type="curve" smooth="yes"/>
      <point x="478" y="183"/>
      <point x="433" y="76"/>
      <point x="315" y="76" type="curve" smooth="yes"/>
      <point x="197" y="76"/>
      <point x="152" y="183"/>
      <point x="152" y="350" type="curve" smooth="yes"/>
      <point x="152" y="363" type="line"/>
      <point x="97" y="288" type="line"/>
      <point x="518" y="288" type="line"/>
      <point x="518" y="374" type="line"/>
      <point x="55" y="374" type="line"/>
      <point x="55" y="350" type="line" smooth="yes"/>
      <point x="55" y="108"/>
      <point x="155" y="-10"/>
    </contour>
  </outline>
</glyph>
<glyph name="jdotless" format="2">
  <advance width="630"/>
  <unicode hex="0237"/>
  <anchor x="353" y="-200" name="bottom"/>
  <anchor x="353" y="500" name="top"/>
  <outline>
    <contour>
      <point x="135" y="-200" type="line"/>
      <point x="302" y="-200" type="line" smooth="yes"/>
      <point x="380" y="-200"/>
      <point x="416" y="-164"/>
      <point x="416" y="-86" type="curve" smooth="yes"/>
      <point x="416" y="500" type="line"/>
      <point x="116" y="500" type="line"/>
      <point x="116" y="420" type="line"/>
      <point x="322" y="420" type="line"/>
      <point x="322" y="-120" type="line"/>
      <point x="135" y="-120" type="line"/>
    </contour>
  </outline>
</glyph>
<glyph name="schwa" format="2">
  <advance width="630"/>
  <unicode hex="0259"/>
  <outline>
    <contour>
      <point x="307" y="-10" type="curve" smooth="yes"/>
      <point x="451" y="-10"/>
      <point x="545" y="90"/>
      <point x="545" y="250" type="curve" smooth="yes"/>
      <point x="545" y="415"/>
      <point x="449" y="510"/>
      <point x="313" y="510" type="curve" smooth="yes"/>
      <point x="185" y="510"/>
      <point x="91" y="428"/>
      <point x="86" y="328" type="curve"/>
      <point x="48" y="355" type="line"/>
      <point x="231" y="355" type="line"/>
      <point x="183" y="324" type="line"/>
      <point x="189" y="383"/>
      <point x="233" y="433"/>
      <point x="313" y="433" type="curve" smooth="yes"/>
      <point x="401" y="433"/>
      <point x="452" y="370"/>
      <point x="452" y="269" type="curve" smooth="yes"/>
      <point x="452" y="227" type="line" smooth="yes"/>
      <point x="452" y="125"/>
      <point x="402" y="67"/>
      <point x="312" y="67" type="curve" smooth="yes"/>
      <point x="229" y="67"/>
      <point x="178" y="125"/>
      <point x="178" y="227" type="curve" smooth="yes"/>
      <point x="178" y="242"/>
      <point x="178" y="256"/>
      <point x="178" y="271" type="curve"/>
      <point x="137" y="209" type="line"/>
      <point x="476" y="209" type="line"/>
      <point x="476" y="282" type="line"/>
      <point x="88" y="282" type="line"/>
      <point x="86" y="266"/>
      <point x="85" y="250"/>
      <point x="85" y="234" type="curve" smooth="yes"/>
      <point x="85" y="90"/>
      <point x="170" y="-10"/>
    </contour>
  </outline>
</glyph>
<glyph name="tildecomb" format="2">
  <advance width="630"/>
  <unicode hex="0303"/>
  <anchor x="315" y="500" name="_top"/>
  <anchor x="315" y="688" name="top"/>
  <outline>
    <contour>
      <point x="382" y="568" type="curve" smooth="yes"/>
      <point x="429" y="568"/>
      <point x="452" y="596"/>
      <point x="452" y="652" type="curve" smooth="yes"/>
      <point x="452" y="677" type="line"/>
      <point x="396" y="677" type="line"/>
      <point x="396" y="660" type="line" smooth="yes"/>
      <point x="396" y="641"/>
      <point x="390" y="631"/>
      <point x="377" y="631" type="curve" smooth="yes"/>
      <point x="364" y="631"/>
      <point x="351" y="638"/>
      <point x="336" y="648" type="curve" smooth="yes"/>
      <point x="313" y="661" type="line" smooth="yes"/>
      <point x="295" y="670"/>
      <point x="278" y="677"/>
      <point x="258" y="677" type="curve" smooth="yes"/>
      <point x="209" y="677"/>
      <point x="178" y="650"/>
      <point x="178" y="596" type="curve" smooth="yes"/>
      <point x="178" y="570" type="line"/>
      <point x="237" y="570" type="line"/>
      <point x="237" y="585" type="line" smooth="yes"/>
      <point x="237" y="603"/>
      <point x="243" y="614"/>
      <point x="260" y="614" type="curve" smooth="yes"/>
      <point x="272" y="614"/>
      <point x="281" y="609"/>
      <point x="292" y="602" type="curve" smooth="yes"/>
      <point x="321" y="586" type="line" smooth="yes"/>
      <point x="336" y="577"/>
      <point x="357" y="568"/>
    </contour>
  </outline>
</glyph>
<glyph name="dieresiscomb" format="2">
  <advance width="630"/>
  <unicode hex="0308"/>
  <anchor x="257" y="500" name="_top"/>
  <anchor x="257" y="673" name="top"/>
  <outline>
    <contour>
      <point x="169" y="568" type="curve" smooth="yes"/>
      <point x="199" y="568"/>
      <point x="223" y="591"/>
      <point x="223" y="622" type="curve" smooth="yes"/>
      <point x="223" y="652"/>
      <point x="199" y="676"/>
      <point x="169" y="676" type="curve" smooth="yes"/>
      <point x="138" y="676"/>
      <point x="115" y="652"/>
      <point x="115" y="622" type="curve" smooth="yes"/>
      <point x="115" y="591"/>
      <point x="138" y="568"/>
    </contour>
    <contour>
      <point x="345" y="568" type="curve" smooth="yes"/>
      <point x="376" y="568"/>
      <point x="399" y="591"/>
      <point x="399" y="622" type="curve" smooth="yes"/>
      <point x="399" y="652"/>
      <point x="376" y="676"/>
      <point x="345" y="676" type="curve" smooth="yes"/>
      <point x="315" y="676"/>
      <point x="291" y="652"/>
      <point x="291" y="622" type="curve" smooth="yes"/>
      <point x="291" y="591"/>
      <point x="315" y="568"/>
    </contour>
  </outline>
</glyph>
<glyph name="ringcomb" format="2">
  <advance width="630"/>
  <unicode hex="030A"/>
  <anchor x="312" y="500" name="_top"/>
  <anchor x="312" y="741" name="top"/>
  <outline>
    <contour>
      <point x="312" y="550" type="curve" smooth="yes"/>
      <point x="366" y="550"/>
      <point x="407" y="592"/>
      <point x="407" y="646" type="curve" smooth="yes"/>
      <point x="407" y="700"/>
      <point x="366" y="741"/>
      <point x="312" y="741" type="curve" smooth="yes"/>
      <point x="257" y="741"/>
      <point x="216" y="700"/>
      <point x="216" y="646" type="curve" smooth="yes"/>
      <point x="216" y="592"/>
      <point x="257" y="550"/>
    </contour>
    <contour>
      <point x="312" y="605" type="curve" smooth="yes"/>
      <point x="288" y="605"/>
      <point x="271" y="623"/>
      <point x="271" y="646" type="curve" smooth="yes"/>
      <point x="271" y="669"/>
      <point x="288" y="686"/>
      <point x="312" y="686" type="curve" smooth="yes"/>
      <point x="335" y="686"/>
      <point x="352" y="669"/>
      <point x="352" y="646" type="curve" smooth="yes"/>
      <point x="352" y="623"/>
      <point x="335" y="605"/>
    </contour>
  </outline>
</glyph>
<glyph name="commaaccentcomb" format="2">
  <advance width="630"/>
  <unicode hex="0326"/>
  <anchor x="316" y="0" name="_bottom"/>
  <anchor x="316" y="-335" name="bottom"/>
  <outline>
    <contour>
      <point x="244" y="-121" type="curve" smooth="yes"/>
      <point x="244" y="-159"/>
      <point x="268" y="-183"/>
      <point x="293" y="-190" type="curve"/>
      <point x="259" y="-280" type="line"/>
      <point x="314" y="-280" type="line"/>
      <point x="365" y="-192" type="line" smooth="yes"/>
      <point x="419" y="-98"/>
      <point x="364" y="-51"/>
      <point x="320" y="-51" type="curve" smooth="yes"/>
      <point x="279" y="-51"/>
      <point x="244" y="-79"/>
    </contour>
  </outline>
</glyph>
<glyph name="cedillacomb" format="2">
  <advance width="630"/>
  <unicode hex="0327"/>
  <anchor x="309" y="0" name="_bottom"/>
  <anchor x="300" y="-230" name="bottom"/>
  <outline>
    <contour>
      <point x="305" y="-200" type="line" smooth="yes"/>
      <point x="372" y="-200"/>
      <point x="410" y="-173"/>
      <point x="410" y="-121" type="curve" smooth="yes"/>
      <point x="410" y="-79"/>
      <point x="383" y="-45"/>
      <point x="309" y="-45" type="curve" smooth="yes"/>
      <point x="304" y="-45" type="line"/>
      <point x="302" y="-41" type="line"/>
      <point x="351" y="11" type="line"/>
      <point x="299" y="22" type="line"/>
      <point x="239" y="-44" type="line"/>
      <point x="239" y="-94" type="line"/>
      <point x="304" y="-94" type="line" smooth="yes"/>
      <point x="332" y="-94"/>
      <point x="342" y="-104"/>
      <point x="342" y="-122" type="curve" smooth="yes"/>
      <point x="342" y="-140"/>
      <point x="332" y="-150"/>
      <point x="304" y="-150" type="curve" smooth="yes"/>
      <point x="238" y="-150" type="line"/>
      <point x="238" y="-200" type="line"/>
    </contour>
  </outline>
</glyph>
<glyph name="ogonekcomb" format="2">
  <advance width="630"/>
  <unicode hex="0328"/>
  <anchor x="354" y="0" name="_ogonek"/>
  <outline>
    <contour>
      <point x="368" y="-200" type="curve" smooth="yes"/>
      <point x="389" y="-200" type="line"/>
      <point x="389" y="-131" type="line"/>
      <point x="380" y="-131" type="line" smooth="yes"/>
      <point x="328" y="-131"/>
      <point x="309" y="-106"/>
      <point x="309" y="-74" type="curve" smooth="yes"/>
      <point x="309" y="-47"/>
      <point x="322" y="-23"/>
      <point x="354" y="0" type="curve"/>
      <point x="302" y="4" type="line"/>
      <point x="263" y="-20"/>
      <point x="241" y="-60"/>
      <point x="241" y="-99" type="curve" smooth="yes"/>
      <point x="241" y="-169"/>
      <point x="294" y="-200"/>
    </contour>
  </outline>
</glyph>
<glyph name="slashshortcomb" format="2">
  <advance width="630"/>
  <unicode hex="0337"/>
  <anchor x="315" y="373" name="_center"/>
  <outline>
    <contour>
      <point x="178" y="255" type="line"/>
      <point x="451" y="408" type="line"/>
      <point x="451" y="491" type="line"/>
      <point x="178" y="339" type="line"/>
    </contour>
  </outline>
</glyph>
<glyph name="Germandbls" format="2">
  <advance width="630"/>
  <unicode hex="1E9E"/>
  <outline>
    <contour>
      <point x="94" y="0" type="line"/>
      <point x="190" y="0" type="line"/>
      <point x="190" y="614" type="line"/>
      <point x="426" y="614" type="line"/>
      <point x="307" y="399" type="line"/>
      <point x="307" y="318" type="line"/>
      <point x="347" y="318" type="line" smooth="yes"/>
      <point x="464" y="318"/>
      <point x="498" y="270"/>
      <point x="498" y="202" type="curve" smooth="yes"/>
      <point x="498" y="134"/>
      <point x="464" y="86"/>
      <point x="347" y="86" type="curve" smooth="yes"/>
      <point x="274" y="86" type="line"/>
      <point x="274" y="0" type="line"/>
      <point x="363" y="0" type="line" smooth="yes"/>
      <point x="499" y="0"/>
      <point x="594" y="70"/>
      <point x="594" y="202" type="curve" smooth="yes"/>
      <point x="594" y="334"/>
      <point x="499" y="399"/>
      <point x="363" y="399" type="curve" smooth="yes"/>
      <point x="339" y="399" type="line"/>
      <point x="377" y="363" type="line"/>
      <point x="528" y="614" type="line"/>
      <point x="528" y="700" type="line"/>
      <point x="190" y="700" type="line" smooth="yes"/>
      <point x="122" y="700"/>
      <point x="94" y="673"/>
      <point x="94" y="605" type="curve" smooth="yes"/>
    </contour>
  </outline>
</glyph>
<glyph name="endash" format="2">
  <advance width="630"/>
  <unicode hex="2013"/>
  <outline>
    <contour>
      <point x="110" y="230" type="line"/>
      <point x="520" y="230" type="line"/>
      <point x="520" y="304" type="line"/>
      <point x="110" y="304" type="line"/>
    </contour>
  </outline>
</glyph>
<glyph name="emdash" format="2">
  <advance width="630"/>
  <unicode hex="2014"/>
  <outline>
    <contour>
      <point x="10" y="230" type="line"/>
      <point x="620" y="230" type="line"/>
      <point x="620" y="304" type="line"/>
      <point x="10" y="304" type="line"/>
    </contour>
  </outline>
</glyph>
<glyph name="bullet" format="2">
  <advance width="630"/>
  <unicode hex="2022"/>
  <outline>
    <contour>
      <point x="315" y="131" type="curve" smooth="yes"/>
      <point x="390" y="131"/>
      <point x="449" y="188"/>
      <point x="449" y="265" type="curve" smooth="yes"/>
      <point x="449" y="338"/>
      <point x="390" y="399"/>
      <point x="315" y="399" type="curve" smooth="yes"/>
      <point x="240" y="399"/>
      <point x="181" y="338"/>
      <point x="181" y="265" type="curve" smooth="yes"/>
      <point x="181" y="188"/>
      <point x="240" y="131"/>
    </contour>
  </outline>
</glyph>
<glyph name="fraction" format="2">
  <advance width="630"/>
  <unicode hex="2044"/>
  <outline>
    <contour>
      <point x="0" y="88" type="line"/>
      <point x="0" y="0" type="line"/>
      <point x="630" y="612" type="line"/>
      <point x="630" y="700" type="line"/>
    </contour>
  </outline>
</glyph>
<glyph name="minus" format="2">
  <advance width="630"/>
  <unicode hex="2212"/>
  <outline>
    <contour>
      <point x="113" y="260" type="line"/>
      <point x="518" y="260" type="line"/>
      <point x="518" y="334" type="line"/>
      <point x="113" y="334" type="line"/>
    </contour>
  </outline>
</glyph>
<glyph name="M.ss02" format="2">
  <advance width="630"/>
  <anchor x="315" y="0" name="bottom"/>
  <anchor x="315" y="700" name="top"/>
  <outline>
    <contour>
      <point x="160" y="0" type="line"/>
      <point x="160" y="578" type="line"/>
      <point x="167" y="578" type="line"/>
      <point x="310" y="230" type="line"/>
      <point x="320" y="230" type="line"/>
      <point x="463" y="578" type="line"/>
      <point x="470" y="578" type="line"/>
      <point x="470" y="0" type="line"/>
      <point x="566" y="0" type="line"/>
      <point x="566" y="700" type="line"/>
      <point x="422" y="700" type="line"/>
      <point x="319" y="430" type="line"/>
      <point x="311" y="430" type="line"/>
      <point x="208" y="700" type="line"/>
      <point x="64" y="700" type="line"/>
      <point x="64" y="0" type="line"/>
    </contour>
  </outline>
</glyph>
<glyph name="W.ss02" format="2">
  <advance width="630"/>
  <anchor x="315" y="0" name="bottom"/>
  <anchor x="315" y="700" name="top"/>
  <outline>
    <contour>
      <point x="96" y="0" type="line"/>
      <point x="206" y="0" type="line"/>
      <point x="311" y="279" type="line"/>
      <point x="319" y="279" type="line"/>
      <point x="428" y="0" type="line"/>
      <point x="534" y="0" type="line"/>
      <point x="566" y="700" type="line"/>
      <point x="470" y="700" type="line"/>
      <point x="451" y="183" type="line"/>
      <point x="444" y="183" type="line"/>
      <point x="320" y="495" type="line"/>
      <point x="310" y="495" type="line"/>
      <point x="188" y="182" type="line"/>
      <point x="181" y="182" type="line"/>
      <point x="160" y="700" type="line"/>
      <point x="64" y="700" type="line"/>
    </contour>
  </outline>
</glyph>
<glyph name="_Qtail" format="2">
  <advance width="630"/>
  <anchor x="315" y="0" name="_bottom"/>
  <outline>
    <contour>
      <point x="266" y="54" type="line"/>
      <point x="266" y="-26" type="line" smooth="yes"/>
      <point x="266" y="-104"/>
      <point x="302" y="-140"/>
      <point x="380" y="-140" type="curve" smooth="yes"/>
      <point x="508" y="-140" type="line"/>
      <point x="508" y="-60" type="line"/>
      <point x="360" y="-60" type="line"/>
      <point x="360" y="54" type="line"/>
    </contour>
  </outline>
</glyph>
<glyph name="_exclam" format="2">
  <advance width="630"/>
  <anchor x="315" y="0" name="dot"/>
  <outline>
    <contour>
      <point x="273" y="192" type="line"/>
      <point x="357" y="192" type="line"/>
      <point x="368" y="700" type="line"/>
      <point x="262" y="700" type="line"/>
    </contour>
  </outline>
</glyph>
<glyph name=".notdef" format="2">
  <advance width="630"/>
  <outline>
    <contour>
      <point x="387" y="491" type="curve"/>
      <point x="340" y="431"/>
      <point x="299" y="372"/>
      <point x="257" y="315" type="curve"/>
      <point x="257" y="497" type="line"/>
      <point x="299" y="497"/>
      <point x="344" y="497"/>
    </contour>
    <contour>
      <point x="372" y="387" type="curve"/>
      <point x="327" y="387"/>
      <point x="295" y="360"/>
      <point x="271" y="332" type="curve"/>
      <point x="298" y="368"/>
      <point x="332" y="416"/>
      <point x="360" y="416" type="curve"/>
      <point x="413" y="475"/>
      <point x="428" y="489"/>
      <point x="444" y="499" type="curve"/>
      <point x="444" y="499" type="line"/>
      <point x="257" y="499" type="line"/>
      <point x="173" y="499" type="line"/>
      <point x="173" y="499" type="line"/>
      <point x="224" y="491"/>
      <point x="226" y="475"/>
      <point x="226" y="444" type="curve"/>
      <point x="226" y="255" type="line"/>
      <point x="226" y="224"/>
      <point x="224" y="206"/>
      <point x="173" y="201" type="curve"/>
      <point x="173" y="201" type="line"/>
      <point x="257" y="201" type="line"/>
      <point x="257" y="313" type="line"/>
      <point x="278" y="343"/>
      <point x="319" y="383"/>
      <point x="360" y="383" type="curve"/>
      <point x="402" y="383"/>
      <point x="428" y="348"/>
      <point x="428" y="299" type="curve"/>
      <point x="428" y="244"/>
      <point x="395" y="197"/>
      <point x="356" y="197" type="curve"/>
      <point x="326" y="197"/>
      <point x="306" y="226"/>
      <point x="306" y="265" type="curve"/>
      <point x="306" y="272"/>
      <point x="307" y="279"/>
      <point x="308" y="283" type="curve"/>
      <point x="305" y="261"/>
      <point x="297" y="254"/>
      <point x="288" y="254" type="curve" smooth="yes"/>
      <point x="280" y="254"/>
      <point x="274" y="261"/>
      <point x="274" y="275" type="curve" smooth="yes"/>
      <point x="274" y="284"/>
      <point x="275" y="297"/>
      <point x="286" y="312" type="curve"/>
      <point x="274" y="299"/>
      <point x="271" y="285"/>
      <point x="271" y="268" type="curve" smooth="yes"/>
      <point x="271" y="231"/>
      <point x="306" y="196"/>
      <point x="358" y="196" type="curve" smooth="yes"/>
      <point x="414" y="196"/>
      <point x="464" y="242"/>
      <point x="464" y="299" type="curve"/>
      <point x="464" y="353"/>
      <point x="422" y="387"/>
    </contour>
    <contour>
      <point x="316" y="36" type="curve" smooth="yes"/>
      <point x="143" y="36"/>
      <point x="1" y="177"/>
      <point x="1" y="349" type="curve" smooth="yes"/>
      <point x="1" y="522"/>
      <point x="143" y="663"/>
      <point x="316" y="663" type="curve" smooth="yes"/>
      <point x="488" y="663"/>
      <point x="630" y="522"/>
      <point x="630" y="349" type="curve" smooth="yes"/>
      <point x="630" y="177"/>
      <point x="488" y="36"/>
    </contour>
  </outline>
</glyph>
<glyph name="_question" format="2">
  <advance width="630"/>
  <anchor x="318" y="0" name="dot"/>
  <outline>
    <contour>
      <point x="266" y="192" type="line"/>
      <point x="370" y="192" type="line"/>
      <point x="370" y="291" type="line"/>
      <point x="446" y="312"/>
      <point x="539" y="375"/>
      <point x="539" y="505" type="curve" smooth="yes"/>
      <point x="539" y="631"/>
      <point x="449" y="710"/>
      <point x="315" y="710" type="curve" smooth="yes"/>
      <point x="171" y="710"/>
      <point x="71" y="609"/>
      <point x="87" y="433" type="curve"/>
      <point x="42" y="469" type="line"/>
      <point x="226" y="469" type="line"/>
      <point x="183" y="432" type="line"/>
      <point x="171" y="547"/>
      <point x="218" y="622"/>
      <point x="316" y="622" type="curve" smooth="yes"/>
      <point x="386" y="622"/>
      <point x="439" y="573"/>
      <point x="439" y="502" type="curve" smooth="yes"/>
      <point x="439" y="416"/>
      <point x="389" y="388"/>
      <point x="312" y="364" type="curve" smooth="yes"/>
      <point x="277" y="353"/>
      <point x="266" y="332"/>
      <point x="266" y="295" type="curve" smooth="yes"/>
    </contour>
  </outline>
</glyph>
<glyph name="a.ss01" format="2">
  <advance width="630"/>
  <anchor x="315" y="0" name="bottom"/>
  <anchor x="546" y="0" name="ogonek"/>
  <anchor x="315" y="500" name="top"/>
  <outline>
    <contour>
      <point x="290" y="-10" type="curve" smooth="yes"/>
      <point x="365" y="-10"/>
      <point x="422" y="25"/>
      <point x="450" y="69" type="curve"/>
      <point x="458" y="69" type="line"/>
      <point x="458" y="0" type="line"/>
      <point x="546" y="0" type="line"/>
      <point x="546" y="500" type="line"/>
      <point x="458" y="500" type="line"/>
      <point x="458" y="431" type="line"/>
      <point x="450" y="431" type="line"/>
      <point x="422" y="475"/>
      <point x="365" y="510"/>
      <point x="290" y="510" type="curve" smooth="yes"/>
      <point x="163" y="510"/>
      <point x="68" y="422"/>
      <point x="68" y="250" type="curve" smooth="yes"/>
      <point x="68" y="78"/>
      <point x="163" y="-10"/>
    </contour>
    <contour>
      <point x="308" y="70" type="curve" smooth="yes"/>
      <point x="219" y="70"/>
      <point x="164" y="129"/>
      <point x="164" y="250" type="curve" smooth="yes"/>
      <point x="164" y="371"/>
      <point x="219" y="430"/>
      <point x="308" y="430" type="curve" smooth="yes"/>
      <point x="397" y="430"/>
      <point x="452" y="371"/>
      <point x="452" y="250" type="curve" smooth="yes"/>
      <point x="452" y="129"/>
      <point x="397" y="70"/>
    </contour>
  </outline>
</glyph>
<glyph name="ampersand.ss01" format="2">
  <advance width="630"/>
  <outline>
    <contour>
      <point x="271" y="-10" type="curve" smooth="yes"/>
      <point x="461" y="-10"/>
      <point x="567" y="121"/>
      <point x="567" y="314" type="curve" smooth="yes"/>
      <point x="567" y="378" type="line"/>
      <point x="482" y="378" type="line"/>
      <point x="482" y="311" type="line" smooth="yes"/>
      <point x="482" y="144"/>
      <point x="401" y="70"/>
      <point x="285" y="70" type="curve" smooth="yes"/>
      <point x="209" y="70"/>
      <point x="157" y="115"/>
      <point x="157" y="187" type="curve" smooth="yes"/>
      <point x="157" y="253"/>
      <point x="189" y="290"/>
      <point x="273" y="333" type="curve" smooth="yes"/>
      <point x="316" y="355" type="line" smooth="yes"/>
      <point x="417" y="407"/>
      <point x="472" y="455"/>
      <point x="472" y="546" type="curve" smooth="yes"/>
      <point x="472" y="634"/>
      <point x="412" y="710"/>
      <point x="301" y="710" type="curve" smooth="yes"/>
      <point x="190" y="710"/>
      <point x="126" y="634"/>
      <point x="126" y="539" type="curve" smooth="yes"/>
      <point x="126" y="475"/>
      <point x="152" y="428"/>
      <point x="217" y="343" type="curve" smooth="yes"/>
      <point x="478" y="0" type="line"/>
      <point x="587" y="0" type="line"/>
      <point x="587" y="3" type="line"/>
      <point x="294" y="385" type="line" smooth="yes"/>
      <point x="237" y="459"/>
      <point x="214" y="495"/>
      <point x="214" y="539" type="curve" smooth="yes"/>
      <point x="214" y="591"/>
      <point x="248" y="629"/>
      <point x="301" y="629" type="curve" smooth="yes"/>
      <point x="356" y="629"/>
      <point x="386" y="594"/>
      <point x="386" y="539" type="curve" smooth="yes"/>
      <point x="386" y="489"/>
      <point x="347" y="452"/>
      <point x="265" y="413" type="curve" smooth="yes"/>
      <point x="221" y="392" type="line" smooth="yes"/>
      <point x="110" y="339"/>
      <point x="62" y="272"/>
      <point x="62" y="182" type="curve" smooth="yes"/>
      <point x="62" y="57"/>
      <point x="145" y="-10"/>
    </contour>
  </outline>
</glyph>
<glyph name="braceleft.case" format="2">
  <advance width="630"/>
  <note>
braceleft.case
</note>
  <outline>
    <contour>
      <point x="135" y="312" type="line"/>
      <point x="182" y="302"/>
      <point x="225" y="292"/>
      <point x="225" y="197" type="curve" smooth="yes"/>
      <point x="225" y="114" type="line" smooth="yes"/>
      <point x="225" y="36"/>
      <point x="261" y="0"/>
      <point x="339" y="0" type="curve" smooth="yes"/>
      <point x="510" y="0" type="line"/>
      <point x="510" y="80" type="line"/>
      <point x="316" y="80" type="line"/>
      <point x="316" y="236" type="line" smooth="yes"/>
      <point x="316" y="301"/>
      <point x="291" y="336"/>
      <point x="227" y="346" type="curve"/>
      <point x="227" y="354" type="line"/>
      <point x="291" y="364"/>
      <point x="316" y="399"/>
      <point x="316" y="464" type="curve" smooth="yes"/>
      <point x="316" y="620" type="line"/>
      <point x="510" y="620" type="line"/>
      <point x="510" y="700" type="line"/>
      <point x="339" y="700" type="line" smooth="yes"/>
      <point x="261" y="700"/>
      <point x="225" y="664"/>
      <point x="225" y="586" type="curve" smooth="yes"/>
      <point x="225" y="503" type="line" smooth="yes"/>
      <point x="225" y="408"/>
      <point x="182" y="398"/>
      <point x="135" y="388" type="curve"/>
    </contour>
  </outline>
</glyph>
<glyph name="bracketleft.case" format="2">
  <advance width="630"/>
  <note>
bracketleft.case
</note>
  <outline>
    <contour>
      <point x="173" y="114" type="line" smooth="yes"/>
      <point x="173" y="36"/>
      <point x="209" y="0"/>
      <point x="287" y="0" type="curve" smooth="yes"/>
      <point x="458" y="0" type="line"/>
      <point x="458" y="80" type="line"/>
      <point x="264" y="80" type="line"/>
      <point x="264" y="620" type="line"/>
      <point x="458" y="620" type="line"/>
      <point x="458" y="700" type="line"/>
      <point x="287" y="700" type="line" smooth="yes"/>
      <point x="209" y="700"/>
      <point x="173" y="664"/>
      <point x="173" y="586" type="curve" smooth="yes"/>
    </contour>
  </outline>
</glyph>
<glyph name="brevecomb.case" format="2">
  <advance width="630"/>
  <anchor x="322" y="700" name="_top"/>
  <anchor x="322" y="887" name="top"/>
  <outline>
    <contour>
      <point x="322" y="744" type="curve" smooth="yes"/>
      <point x="415" y="744"/>
      <point x="497" y="803"/>
      <point x="497" y="928" type="curve"/>
      <point x="551" y="887" type="line"/>
      <point x="387" y="887" type="line"/>
      <point x="423" y="918" type="line"/>
      <point x="423" y="847"/>
      <point x="380" y="805"/>
      <point x="322" y="805" type="curve" smooth="yes"/>
      <point x="264" y="805"/>
      <point x="221" y="847"/>
      <point x="221" y="918" type="curve"/>
      <point x="254" y="887" type="line"/>
      <point x="93" y="887" type="line"/>
      <point x="147" y="928" type="line"/>
      <point x="147" y="803"/>
      <point x="229" y="744"/>
    </contour>
  </outline>
</glyph>
<glyph name="caroncomb.case" format="2">
  <advance width="630"/>
  <anchor x="318" y="700" name="_top"/>
  <anchor x="318" y="871" name="top"/>
  <outline>
    <contour>
      <point x="282" y="751" type="line"/>
      <point x="354" y="751" type="line"/>
      <point x="496" y="871" type="line"/>
      <point x="398" y="871" type="line"/>
      <point x="322" y="809" type="line"/>
      <point x="314" y="809" type="line"/>
      <point x="238" y="871" type="line"/>
      <point x="140" y="871" type="line"/>
    </contour>
  </outline>
</glyph>
<glyph name="dieresiscomb.case" format="2">
  <advance width="630"/>
  <anchor x="315" y="700" name="_top"/>
  <anchor x="315" y="858" name="top"/>
  <outline>
    <contour>
      <point x="227" y="750" type="curve" smooth="yes"/>
      <point x="257" y="750"/>
      <point x="281" y="773"/>
      <point x="281" y="804" type="curve" smooth="yes"/>
      <point x="281" y="834"/>
      <point x="257" y="858"/>
      <point x="227" y="858" type="curve" smooth="yes"/>
      <point x="196" y="858"/>
      <point x="173" y="834"/>
      <point x="173" y="804" type="curve" smooth="yes"/>
      <point x="173" y="773"/>
      <point x="196" y="750"/>
    </contour>
    <contour>
      <point x="403" y="750" type="curve" smooth="yes"/>
      <point x="434" y="750"/>
      <point x="457" y="773"/>
      <point x="457" y="804" type="curve" smooth="yes"/>
      <point x="457" y="834"/>
      <point x="434" y="858"/>
      <point x="403" y="858" type="curve" smooth="yes"/>
      <point x="373" y="858"/>
      <point x="349" y="834"/>
      <point x="349" y="804" type="curve" smooth="yes"/>
      <point x="349" y="773"/>
      <point x="373" y="750"/>
    </contour>
  </outline>
</glyph>
<glyph name="eight.dnom" format="2">
  <advance width="630"/>
  <outline>
    <contour>
      <point x="315" y="-10" type="curve" smooth="yes"/>
      <point x="399" y="-10"/>
      <point x="456" y="29"/>
      <point x="456" y="90" type="curve" smooth="yes"/>
      <point x="456" y="127"/>
      <point x="437" y="152"/>
      <point x="397" y="171" type="curve"/>
      <point x="397" y="175" type="line"/>
      <point x="430" y="191"/>
      <point x="445" y="217"/>
      <point x="445" y="248" type="curve" smooth="yes"/>
      <point x="445" y="301"/>
      <point x="394" y="340"/>
      <point x="315" y="340" type="curve" smooth="yes"/>
      <point x="236" y="340"/>
      <point x="185" y="301"/>
      <point x="185" y="248" type="curve" smooth="yes"/>
      <point x="185" y="217"/>
      <point x="200" y="191"/>
      <point x="233" y="175" type="curve"/>
      <point x="233" y="171" type="line"/>
      <point x="193" y="152"/>
      <point x="174" y="126"/>
      <point x="174" y="90" type="curve" smooth="yes"/>
      <point x="174" y="29"/>
      <point x="231" y="-10"/>
    </contour>
    <contour>
      <point x="315" y="40" type="curve" smooth="yes"/>
      <point x="271" y="40"/>
      <point x="249" y="64"/>
      <point x="249" y="94" type="curve" smooth="yes"/>
      <point x="249" y="122"/>
      <point x="271" y="145"/>
      <point x="315" y="145" type="curve" smooth="yes"/>
      <point x="360" y="145"/>
      <point x="381" y="122"/>
      <point x="381" y="94" type="curve" smooth="yes"/>
      <point x="381" y="64"/>
      <point x="360" y="40"/>
    </contour>
    <contour>
      <point x="315" y="198" type="curve" smooth="yes"/>
      <point x="278" y="198"/>
      <point x="256" y="217"/>
      <point x="256" y="245" type="curve" smooth="yes"/>
      <point x="256" y="272"/>
      <point x="278" y="292"/>
      <point x="315" y="292" type="curve" smooth="yes"/>
      <point x="352" y="292"/>
      <point x="374" y="272"/>
      <point x="374" y="245" type="curve" smooth="yes"/>
      <point x="374" y="217"/>
      <point x="352" y="198"/>
    </contour>
  </outline>
</glyph>
<glyph name="five.dnom" format="2">
  <advance width="630"/>
  <outline>
    <contour>
      <point x="317" y="-10" type="curve" smooth="yes"/>
      <point x="388" y="-10"/>
      <point x="450" y="28"/>
      <point x="450" y="109" type="curve" smooth="yes"/>
      <point x="450" y="181"/>
      <point x="402" y="221"/>
      <point x="338" y="221" type="curve" smooth="yes"/>
      <point x="304" y="221"/>
      <point x="281" y="210"/>
      <point x="263" y="197" type="curve"/>
      <point x="259" y="197" type="line"/>
      <point x="269" y="276" type="line"/>
      <point x="424" y="276" type="line"/>
      <point x="424" y="336" type="line"/>
      <point x="213" y="336" type="line"/>
      <point x="185" y="129" type="line"/>
      <point x="253" y="129" type="line"/>
      <point x="259" y="150"/>
      <point x="287" y="169"/>
      <point x="321" y="169" type="curve" smooth="yes"/>
      <point x="354" y="169"/>
      <point x="384" y="146"/>
      <point x="384" y="107" type="curve" smooth="yes"/>
      <point x="384" y="67"/>
      <point x="356" y="47"/>
      <point x="318" y="47" type="curve" smooth="yes"/>
      <point x="280" y="47"/>
      <point x="256" y="71"/>
      <point x="254" y="104" type="curve"/>
      <point x="282" y="90" type="line"/>
      <point x="158" y="90" type="line"/>
      <point x="181" y="104" type="line"/>
      <point x="181" y="31"/>
      <point x="236" y="-10"/>
    </contour>
  </outline>
</glyph>
<glyph name="four.dnom" format="2">
  <advance width="630"/>
  <outline>
    <contour>
      <point x="337" y="0" type="line"/>
      <point x="400" y="0" type="line"/>
      <point x="400" y="340" type="line"/>
      <point x="332" y="340" type="line"/>
      <point x="167" y="126" type="line"/>
      <point x="167" y="68" type="line"/>
      <point x="458" y="68" type="line"/>
      <point x="458" y="123" type="line"/>
      <point x="230" y="123" type="line"/>
      <point x="332" y="256" type="line"/>
      <point x="337" y="256" type="line"/>
    </contour>
  </outline>
</glyph>
<glyph name="g.ss01" format="2">
  <advance width="630"/>
  <anchor x="315" y="-200" name="bottom"/>
  <anchor x="315" y="500" name="top"/>
  <outline>
    <contour>
      <point x="311" y="-210" type="curve" smooth="yes"/>
      <point x="452" y="-210"/>
      <point x="545" y="-149"/>
      <point x="545" y="-3" type="curve" smooth="yes"/>
      <point x="545" y="500" type="line"/>
      <point x="458" y="500" type="line"/>
      <point x="458" y="431" type="line"/>
      <point x="450" y="431" type="line"/>
      <point x="421" y="477"/>
      <point x="362" y="510"/>
      <point x="291" y="510" type="curve" smooth="yes"/>
      <point x="168" y="510"/>
      <point x="73" y="422"/>
      <point x="73" y="257" type="curve" smooth="yes"/>
      <point x="73" y="92"/>
      <point x="168" y="4"/>
      <point x="291" y="4" type="curve" smooth="yes"/>
      <point x="362" y="4"/>
      <point x="415" y="38"/>
      <point x="443" y="79" type="curve"/>
      <point x="451" y="79" type="line"/>
      <point x="451" y="0" type="line" smooth="yes"/>
      <point x="451" y="-100"/>
      <point x="396" y="-131"/>
      <point x="311" y="-131" type="curve" smooth="yes"/>
      <point x="220" y="-131"/>
      <point x="180" y="-92"/>
      <point x="180" y="-40" type="curve"/>
      <point x="225" y="-49" type="line"/>
      <point x="39" y="-49" type="line"/>
      <point x="83" y="-35" type="line"/>
      <point x="83" y="-149"/>
      <point x="166" y="-210"/>
    </contour>
    <contour>
      <point x="309" y="84" type="curve" smooth="yes"/>
      <point x="224" y="84"/>
      <point x="169" y="143"/>
      <point x="169" y="257" type="curve" smooth="yes"/>
      <point x="169" y="371"/>
      <point x="224" y="430"/>
      <point x="309" y="430" type="curve" smooth="yes"/>
      <point x="394" y="430"/>
      <point x="449" y="371"/>
      <point x="449" y="257" type="curve" smooth="yes"/>
      <point x="449" y="143"/>
      <point x="394" y="84"/>
    </contour>
  </outline>
</glyph>
<glyph name="hungarumlautcomb.case" format="2">
  <advance width="630"/>
  <anchor x="253" y="700" name="_top"/>
  <anchor x="315" y="871" name="top"/>
  <outline>
    <contour>
      <point x="318" y="871" type="line"/>
      <point x="201" y="871" type="line"/>
      <point x="128" y="751" type="line"/>
      <point x="208" y="751" type="line"/>
    </contour>
    <contour>
      <point x="502" y="871" type="line"/>
      <point x="385" y="871" type="line"/>
      <point x="312" y="751" type="line"/>
      <point x="392" y="751" type="line"/>
    </contour>
  </outline>
</glyph>
<glyph name="nine.dnom" format="2">
  <advance width="630"/>
  <outline>
    <contour>
      <point x="327" y="-10" type="curve" smooth="yes"/>
      <point x="429" y="-10"/>
      <point x="475" y="62"/>
      <point x="475" y="165" type="curve" smooth="yes"/>
      <point x="475" y="293"/>
      <point x="416" y="340"/>
      <point x="332" y="340" type="curve" smooth="yes"/>
      <point x="260" y="340"/>
      <point x="199" y="300"/>
      <point x="199" y="224" type="curve" smooth="yes"/>
      <point x="199" y="153"/>
      <point x="253" y="120"/>
      <point x="321" y="120" type="curve" smooth="yes"/>
      <point x="352" y="120"/>
      <point x="385" y="135"/>
      <point x="402" y="156" type="curve"/>
      <point x="407" y="156" type="line"/>
      <point x="407" y="95"/>
      <point x="393" y="48"/>
      <point x="333" y="48" type="curve" smooth="yes"/>
      <point x="297" y="48"/>
      <point x="277" y="67"/>
      <point x="273" y="99" type="curve"/>
      <point x="300" y="92" type="line"/>
      <point x="177" y="92" type="line"/>
      <point x="201" y="99" type="line"/>
      <point x="205" y="36"/>
      <point x="250" y="-10"/>
    </contour>
    <contour>
      <point x="334" y="168" type="curve" smooth="yes"/>
      <point x="293" y="168"/>
      <point x="270" y="193"/>
      <point x="270" y="229" type="curve" smooth="yes"/>
      <point x="270" y="265"/>
      <point x="293" y="291"/>
      <point x="334" y="291" type="curve" smooth="yes"/>
      <point x="373" y="291"/>
      <point x="397" y="265"/>
      <point x="397" y="229" type="curve" smooth="yes"/>
      <point x="397" y="193"/>
      <point x="373" y="168"/>
    </contour>
  </outline>
</glyph>
<glyph name="one.dnom" format="2">
  <advance width="630"/>
  <outline>
    <contour>
      <point x="195" y="0" type="line"/>
      <point x="435" y="0" type="line"/>
      <point x="435" y="60" type="line"/>
      <point x="346" y="60" type="line"/>
      <point x="347" y="340" type="line"/>
      <point x="287" y="340" type="line"/>
      <point x="195" y="270" type="line"/>
      <point x="195" y="201" type="line"/>
      <point x="279" y="264" type="line"/>
      <point x="283" y="264" type="line"/>
      <point x="283" y="60" type="line"/>
      <point x="195" y="60" type="line"/>
    </contour>
  </outline>
</glyph>
<glyph name="parenleft.case" format="2">
  <advance width="630"/>
  <note>
parenleft.case
</note>
  <outline>
    <contour>
      <point x="372" y="0" type="curve"/>
      <point x="470" y="0" type="line"/>
      <point x="282" y="196"/>
      <point x="282" y="503"/>
      <point x="470" y="700" type="curve"/>
      <point x="372" y="700" type="line"/>
      <point x="193" y="503"/>
      <point x="193" y="197"/>
    </contour>
  </outline>
</glyph>
<glyph name="ringcomb.case" format="2">
  <advance width="630"/>
  <anchor x="312" y="700" name="_top"/>
  <anchor x="312" y="916" name="top"/>
  <outline>
    <contour>
      <point x="312" y="725" type="curve" smooth="yes"/>
      <point x="366" y="725"/>
      <point x="407" y="767"/>
      <point x="407" y="821" type="curve" smooth="yes"/>
      <point x="407" y="875"/>
      <point x="366" y="916"/>
      <point x="312" y="916" type="curve" smooth="yes"/>
      <point x="257" y="916"/>
      <point x="216" y="875"/>
      <point x="216" y="821" type="curve" smooth="yes"/>
      <point x="216" y="767"/>
      <point x="257" y="725"/>
    </contour>
    <contour>
      <point x="312" y="780" type="curve" smooth="yes"/>
      <point x="288" y="780"/>
      <point x="271" y="798"/>
      <point x="271" y="821" type="curve" smooth="yes"/>
      <point x="271" y="844"/>
      <point x="288" y="861"/>
      <point x="312" y="861" type="curve" smooth="yes"/>
      <point x="335" y="861"/>
      <point x="352" y="844"/>
      <point x="352" y="821" type="curve" smooth="yes"/>
      <point x="352" y="798"/>
      <point x="335" y="780"/>
    </contour>
  </outline>
</glyph>
<glyph name="seven.dnom" format="2">
  <advance width="630"/>
  <outline>
    <contour>
      <point x="375" y="280" type="line"/>
      <point x="375" y="277" type="line"/>
      <point x="316" y="221"/>
      <point x="276" y="131"/>
      <point x="276" y="17" type="curve" smooth="yes"/>
      <point x="276" y="0" type="line"/>
      <point x="341" y="0" type="line"/>
      <point x="341" y="15" type="line" smooth="yes"/>
      <point x="341" y="121"/>
      <point x="368" y="198"/>
      <point x="446" y="280" type="curve"/>
      <point x="446" y="340" type="line"/>
      <point x="183" y="340" type="line"/>
      <point x="183" y="280" type="line"/>
    </contour>
  </outline>
</glyph>
<glyph name="six.dnom" format="2">
  <advance width="630"/>
  <outline>
    <contour>
      <point x="250" y="174" type="curve"/>
      <point x="245" y="174" type="line"/>
      <point x="245" y="235"/>
      <point x="269" y="282"/>
      <point x="320" y="282" type="curve" smooth="yes"/>
      <point x="355" y="282"/>
      <point x="378" y="263"/>
      <point x="379" y="231" type="curve"/>
      <point x="352" y="238" type="line"/>
      <point x="475" y="238" type="line"/>
      <point x="451" y="231" type="line"/>
      <point x="447" y="294"/>
      <point x="402" y="340"/>
      <point x="326" y="340" type="curve" smooth="yes"/>
      <point x="233" y="340"/>
      <point x="177" y="268"/>
      <point x="177" y="165" type="curve" smooth="yes"/>
      <point x="177" y="37"/>
      <point x="236" y="-10"/>
      <point x="320" y="-10" type="curve" smooth="yes"/>
      <point x="392" y="-10"/>
      <point x="453" y="30"/>
      <point x="453" y="106" type="curve" smooth="yes"/>
      <point x="453" y="177"/>
      <point x="399" y="210"/>
      <point x="331" y="210" type="curve" smooth="yes"/>
      <point x="300" y="210"/>
      <point x="267" y="195"/>
    </contour>
    <contour>
      <point x="318" y="39" type="curve" smooth="yes"/>
      <point x="279" y="39"/>
      <point x="255" y="65"/>
      <point x="255" y="101" type="curve" smooth="yes"/>
      <point x="255" y="137"/>
      <point x="279" y="162"/>
      <point x="318" y="162" type="curve" smooth="yes"/>
      <point x="359" y="162"/>
      <point x="382" y="137"/>
      <point x="382" y="101" type="curve" smooth="yes"/>
      <point x="382" y="65"/>
      <point x="359" y="39"/>
    </contour>
  </outline>
</glyph>
<glyph name="strokeshortcomb.case" format="2">
  <advance width="630"/>
  <note>
italisé les master italic
</note>
  <anchor x="266" y="405" name="_center"/>
  <outline>
    <contour>
      <point x="98" y="364" type="line"/>
      <point x="433" y="364" type="line"/>
      <point x="433" y="446" type="line"/>
      <point x="98" y="446" type="line"/>
    </contour>
  </outline>
</glyph>
<glyph name="three.dnom" format="2">
  <advance width="630"/>
  <outline>
    <contour>
      <point x="398" y="167" type="curve"/>
      <point x="398" y="171" type="line"/>
      <point x="420" y="183"/>
      <point x="444" y="209"/>
      <point x="444" y="246" type="curve" smooth="yes"/>
      <point x="444" y="302"/>
      <point x="398" y="340"/>
      <point x="323" y="340" type="curve" smooth="yes"/>
      <point x="244" y="340"/>
      <point x="187" y="292"/>
      <point x="195" y="215" type="curve"/>
      <point x="171" y="229" type="line"/>
      <point x="291" y="229" type="line"/>
      <point x="268" y="213" type="line"/>
      <point x="258" y="255"/>
      <point x="283" y="282"/>
      <point x="323" y="282" type="curve" smooth="yes"/>
      <point x="353" y="282"/>
      <point x="378" y="266"/>
      <point x="378" y="237" type="curve" smooth="yes"/>
      <point x="378" y="210"/>
      <point x="357" y="196"/>
      <point x="322" y="196" type="curve" smooth="yes"/>
      <point x="290" y="196" type="line"/>
      <point x="290" y="140" type="line"/>
      <point x="326" y="140" type="line" smooth="yes"/>
      <point x="366" y="140"/>
      <point x="382" y="122"/>
      <point x="382" y="95" type="curve" smooth="yes"/>
      <point x="382" y="63"/>
      <point x="355" y="47"/>
      <point x="319" y="47" type="curve" smooth="yes"/>
      <point x="279" y="47"/>
      <point x="252" y="69"/>
      <point x="253" y="115" type="curve"/>
      <point x="277" y="100" type="line"/>
      <point x="157" y="100" type="line"/>
      <point x="182" y="115" type="line"/>
      <point x="176" y="38"/>
      <point x="235" y="-10"/>
      <point x="315" y="-10" type="curve" smooth="yes"/>
      <point x="392" y="-10"/>
      <point x="448" y="25"/>
      <point x="448" y="92" type="curve" smooth="yes"/>
      <point x="448" y="134"/>
      <point x="424" y="158"/>
    </contour>
  </outline>
</glyph>
<glyph name="tildecomb.case" format="2">
  <advance width="630"/>
  <anchor x="315" y="700" name="_top"/>
  <anchor x="315" y="845" name="top"/>
  <outline>
    <contour>
      <point x="382" y="736" type="curve" smooth="yes"/>
      <point x="429" y="736"/>
      <point x="452" y="764"/>
      <point x="452" y="820" type="curve" smooth="yes"/>
      <point x="452" y="845" type="line"/>
      <point x="396" y="845" type="line"/>
      <point x="396" y="828" type="line" smooth="yes"/>
      <point x="396" y="809"/>
      <point x="390" y="799"/>
      <point x="377" y="799" type="curve" smooth="yes"/>
      <point x="364" y="799"/>
      <point x="351" y="806"/>
      <point x="336" y="816" type="curve" smooth="yes"/>
      <point x="313" y="829" type="line" smooth="yes"/>
      <point x="295" y="838"/>
      <point x="278" y="845"/>
      <point x="258" y="845" type="curve" smooth="yes"/>
      <point x="209" y="845"/>
      <point x="178" y="818"/>
      <point x="178" y="764" type="curve" smooth="yes"/>
      <point x="178" y="738" type="line"/>
      <point x="237" y="738" type="line"/>
      <point x="237" y="753" type="line" smooth="yes"/>
      <point x="237" y="771"/>
      <point x="243" y="782"/>
      <point x="260" y="782" type="curve" smooth="yes"/>
      <point x="272" y="782"/>
      <point x="281" y="777"/>
      <point x="292" y="770" type="curve" smooth="yes"/>
      <point x="321" y="754" type="line" smooth="yes"/>
      <point x="336" y="745"/>
      <point x="357" y="736"/>
    </contour>
  </outline>
</glyph>
<glyph name="two.dnom" format="2">
  <advance width="630"/>
  <outline>
    <contour>
      <point x="293" y="60" type="line"/>
      <point x="293" y="64" type="line"/>
      <point x="359" y="111" type="line" smooth="yes"/>
      <point x="417" y="152"/>
      <point x="441" y="185"/>
      <point x="441" y="242" type="curve" smooth="yes"/>
      <point x="441" y="306"/>
      <point x="392" y="345"/>
      <point x="319" y="345" type="curve" smooth="yes"/>
      <point x="240" y="345"/>
      <point x="179" y="296"/>
      <point x="188" y="200" type="curve"/>
      <point x="163" y="218" type="line"/>
      <point x="281" y="218" type="line"/>
      <point x="258" y="200" type="line"/>
      <point x="252" y="257"/>
      <point x="276" y="285"/>
      <point x="319" y="285" type="curve" smooth="yes"/>
      <point x="355" y="285"/>
      <point x="375" y="263"/>
      <point x="375" y="233" type="curve" smooth="yes"/>
      <point x="375" y="196"/>
      <point x="350" y="177"/>
      <point x="292" y="134" type="curve" smooth="yes"/>
      <point x="192" y="60" type="line"/>
      <point x="192" y="0" type="line"/>
      <point x="444" y="0" type="line"/>
      <point x="444" y="60" type="line"/>
    </contour>
  </outline>
</glyph>
<glyph name="u.001" format="2">
  <advance width="630"/>
  <anchor x="315" y="0" name="bottom"/>
  <anchor x="567" y="10" name="ogonek"/>
  <anchor x="315" y="500" name="top"/>
  <anchor x="610" y="500" name="topright"/>
  <outline>
    <contour>
      <point x="522" y="500" type="line"/>
      <point x="428" y="500" type="line"/>
      <point x="428" y="230" type="line" smooth="yes"/>
      <point x="428" y="118"/>
      <point x="379" y="70"/>
      <point x="306" y="70" type="curve" smooth="yes"/>
      <point x="236" y="70"/>
      <point x="197" y="106"/>
      <point x="197" y="216" type="curve" smooth="yes"/>
      <point x="197" y="500" type="line"/>
      <point x="103" y="500" type="line"/>
      <point x="103" y="202" type="line" smooth="yes"/>
      <point x="103" y="59"/>
      <point x="165" y="-10"/>
      <point x="271" y="-10" type="curve" smooth="yes"/>
      <point x="344" y="-10"/>
      <point x="397" y="22"/>
      <point x="426" y="75" type="curve"/>
      <point x="434" y="75" type="line"/>
      <point x="434" y="0" type="line"/>
      <point x="522" y="0" type="line"/>
    </contour>
  </outline>
</glyph>
<glyph name="zero.dnom" format="2">
  <advance width="630"/>
  <outline>
    <contour>
      <point x="315" y="-10" type="curve" smooth="yes"/>
      <point x="405" y="-10"/>
      <point x="462" y="49"/>
      <point x="462" y="165" type="curve" smooth="yes"/>
      <point x="462" y="281"/>
      <point x="405" y="340"/>
      <point x="315" y="340" type="curve" smooth="yes"/>
      <point x="225" y="340"/>
      <point x="168" y="281"/>
      <point x="168" y="165" type="curve" smooth="yes"/>
      <point x="168" y="49"/>
      <point x="225" y="-10"/>
    </contour>
    <contour>
      <point x="315" y="46" type="curve" smooth="yes"/>
      <point x="259" y="46"/>
      <point x="234" y="91"/>
      <point x="234" y="165" type="curve" smooth="yes"/>
      <point x="234" y="239"/>
      <point x="259" y="284"/>
      <point x="315" y="284" type="curve" smooth="yes"/>
      <point x="371" y="284"/>
      <point x="396" y="239"/>
      <point x="396" y="165" type="curve" smooth="yes"/>
      <point x="396" y="91"/>
      <point x="371" y="46"/>
    </contour>
    <contour>
      <point x="270" y="25" type="line"/>
      <point x="403" y="279" type="line"/>
      <point x="360" y="304" type="line"/>
      <point x="228" y="53" type="line"/>
    </contour>
  </outline>
</glyph>
